<svg width="18" height="20" viewBox="0 0 18 20" fill="none" xmlns="http://www.w3.org/2000/svg">
<path d="M17.5965 16.0207C17.5216 15.8738 17.4037 15.7531 17.2586 15.6747C17.1135 15.5964 16.9479 15.564 16.784 15.582C16.3596 15.6515 15.9303 15.6869 15.5002 15.6876C13.3453 15.6876 11.2787 14.8316 9.75496 13.3079C8.23123 11.7841 7.3752 9.7175 7.3752 7.56262C7.37123 6.48153 7.58501 5.41071 8.00378 4.41402C8.42256 3.41733 9.03776 2.51518 9.8127 1.76137C9.93443 1.64091 10.015 1.48506 10.0429 1.31609C10.0707 1.14712 10.0445 0.973655 9.96792 0.820478C9.89133 0.6673 9.7683 0.54224 9.6164 0.463157C9.46449 0.384073 9.29148 0.35501 9.12208 0.380119C7.60223 0.61313 6.15904 1.2023 4.91034 2.09951C3.66165 2.99673 2.64286 4.17655 1.93716 5.54265C1.23146 6.90875 0.858856 8.42238 0.849779 9.95996C0.840703 11.4975 1.19541 13.0155 1.88493 14.3898C2.57445 15.7641 3.57924 16.9559 4.81726 17.8678C6.05527 18.7797 7.49141 19.3859 9.0084 19.6368C10.5254 19.8877 12.0802 19.7763 13.5459 19.3117C15.0117 18.847 16.3467 18.0423 17.4421 16.9632C17.564 16.8426 17.6446 16.6864 17.6724 16.5171C17.7001 16.3478 17.6735 16.174 17.5965 16.0207Z" fill="white"/>
</svg>
