<svg width="18" height="20" viewBox="0 0 18 20" fill="none" xmlns="http://www.w3.org/2000/svg">
<path d="M17.5965 16.0206C17.5216 15.8737 17.4037 15.753 17.2586 15.6746C17.1135 15.5962 16.9479 15.5639 16.784 15.5819C16.3596 15.6514 15.9303 15.6867 15.5002 15.6875C13.3453 15.6875 11.2787 14.8315 9.75496 13.3077C8.23123 11.784 7.3752 9.71738 7.3752 7.5625C7.37123 6.48141 7.58501 5.41059 8.00378 4.4139C8.42256 3.41721 9.03776 2.51506 9.8127 1.76125C9.93443 1.64079 10.015 1.48494 10.0429 1.31597C10.0707 1.14699 10.0445 0.973533 9.96792 0.820356C9.89133 0.667178 9.7683 0.542118 9.6164 0.463035C9.46449 0.383951 9.29148 0.354888 9.12208 0.379996C7.60223 0.613008 6.15904 1.20218 4.91034 2.09939C3.66165 2.99661 2.64286 4.17643 1.93716 5.54253C1.23146 6.90862 0.858856 8.42226 0.849779 9.95984C0.840703 11.4974 1.19541 13.0153 1.88493 14.3897C2.57445 15.764 3.57924 16.9558 4.81726 17.8677C6.05527 18.7796 7.49141 19.3857 9.0084 19.6367C10.5254 19.8876 12.0802 19.7762 13.5459 19.3116C15.0117 18.8469 16.3467 18.0422 17.4421 16.9631C17.564 16.8424 17.6446 16.6863 17.6724 16.5169C17.7001 16.3476 17.6735 16.1739 17.5965 16.0206Z" fill="white"/>
</svg>
