<svg width="24" height="24" viewBox="0 0 24 24" fill="none" xmlns="http://www.w3.org/2000/svg">
<path fill-rule="evenodd" clip-rule="evenodd" d="M19.4513 1.32859C19.1233 1.13665 18.7039 1.25056 18.5146 1.58299L16.4174 5.26593C14.9886 4.59715 13.5096 4.25521 12.0125 4.25521C7.98974 4.25521 4.09828 6.72538 0.960219 11.3691L0.947773 11.3873L0.936887 11.4031C0.832361 11.5528 0.829692 11.7287 0.936365 11.8767C3.25197 15.3162 5.98061 17.5689 8.87034 18.5157L7.19972 21.4475C7.01034 21.7799 7.12272 22.205 7.45068 22.3969L7.74762 22.5707C8.07559 22.7626 8.49496 22.6487 8.68434 22.3163L19.9991 2.45179C20.1886 2.11936 20.0762 1.69429 19.7482 1.50235L19.4513 1.32859ZM15.5077 6.86304C14.3448 6.35106 13.1706 6.10152 12.0125 6.10152C9.08959 6.10152 6.06384 7.6911 3.37663 11.0775C3.11867 11.4026 3.11867 11.8765 3.37663 12.2016C5.39095 14.7401 7.59544 16.2694 9.80428 16.8761L10.9593 14.8483C9.63988 14.4275 8.54885 13.2536 8.54885 11.6414C8.54885 9.60209 10.1119 7.94873 12.0397 7.94873C12.9296 7.94873 13.7417 8.30101 14.3584 8.88089L15.5077 6.86304ZM13.4051 10.5545C13.1082 10.0942 12.6201 9.79503 12.0397 9.79503C11.075 9.79503 10.286 10.6204 10.286 11.64C10.286 12.3139 11.0087 13.1014 11.9166 13.1676L13.4051 10.5545Z" fill="#5E5E5E"/>
<path d="M12.5898 19.0081C16.3988 18.7841 20.0627 16.3446 23.0462 11.9408C23.1087 11.8486 23.1436 11.7532 23.1436 11.6397C23.1436 11.5315 23.1136 11.4412 23.0541 11.3533C21.9075 9.658 20.66 8.25327 19.3423 7.15332L18.4344 8.74729C19.191 9.3988 19.932 10.1743 20.6488 11.0776C20.9068 11.4027 20.9068 11.8766 20.6488 12.2017C18.4872 14.9258 16.1067 16.4877 13.7368 16.9945L12.5898 19.0081Z" fill="#5E5E5E"/>
</svg>
