<svg width="14" height="16" viewBox="0 0 14 16" fill="none" xmlns="http://www.w3.org/2000/svg">
<g clip-path="url(#clip0_264_9990)">
<path d="M13.5899 4.66266L6.20435 12.673C5.65744 13.2664 4.77026 13.2664 4.22283 12.673L0.410339 8.53744C-0.13678 7.94411 -0.13678 6.9817 0.410339 6.38825C0.957562 5.79469 1.84467 5.79469 2.39165 6.38803L5.21388 9.44927L11.6083 2.51336C12.1555 1.9198 13.0427 1.92025 13.5897 2.51336C14.1367 3.1068 14.1367 4.06888 13.5899 4.66266Z" fill="#EFEFEF"/>
</g>
<defs>
<clipPath id="clip0_264_9990">
<path d="M0 4C0 1.79086 1.79086 0 4 0H10C12.2091 0 14 1.79086 14 4V11.1854C14 13.3946 12.2091 15.1854 10 15.1854H4C1.79086 15.1854 0 13.3946 0 11.1854V4Z" fill="white"/>
</clipPath>
</defs>
</svg>
