<svg width="7" height="7" viewBox="0 0 7 7" fill="none" xmlns="http://www.w3.org/2000/svg">
<path d="M3.22962 6.88811L0.701615 4.36016C0.629453 4.288 0.589844 4.19182 0.589844 4.08927C0.589844 3.98661 0.62951 3.89048 0.701615 3.81832L0.931191 3.5888C1.00324 3.5167 1.09947 3.47698 1.20208 3.47698C1.30463 3.47698 1.40411 3.5167 1.47616 3.5888L2.95417 5.06357L2.95417 0.378167C2.95417 0.166917 3.11956 1.10577e-07 3.33086 1.19814e-07L3.65542 1.34001e-07C3.86673 1.43237e-07 4.04878 0.166917 4.04878 0.378167L4.04878 5.0803L5.53505 3.58886C5.60721 3.51676 5.70083 3.47703 5.80344 3.47703C5.90593 3.47703 6.00092 3.51676 6.07302 3.58886L6.30186 3.81838C6.37402 3.89054 6.41334 3.98666 6.41334 4.08933C6.41334 4.19188 6.37351 4.28806 6.30134 4.36022L3.7734 6.88816C3.70101 6.9605 3.60437 7.00028 3.50165 6.99999C3.39859 7.00022 3.3019 6.9605 3.22962 6.88811Z" fill="#FF8C00"/>
</svg>
