<svg width="24" height="27" viewBox="0 0 24 27" fill="none" xmlns="http://www.w3.org/2000/svg">
<g clip-path="url(#clip0_264_9665)">
<path d="M12 0.805664C5.373 0.805664 0 6.56671 0 13.6723C0 20.7779 5.373 26.539 12 26.539C18.627 26.539 24 20.7779 24 13.6723C24 6.56671 18.627 0.805664 12 0.805664ZM12 24.3946C8.877 24.3946 6.086 22.8495 4.251 20.4381C4.51 19.8076 5.034 19.3712 6.118 19.1021C8.362 18.5466 10.577 18.0502 9.511 15.9444C6.356 9.70404 8.612 6.16677 12 6.16677C15.322 6.16677 17.634 9.57323 14.489 15.9444C13.454 18.0373 15.589 18.5349 17.882 19.1021C18.964 19.3701 19.492 19.8044 19.753 20.4327C17.917 22.8484 15.125 24.3946 12 24.3946Z" fill="#8D8D8D"/>
</g>
<defs>
<clipPath id="clip0_264_9665">
<rect width="24" height="25.7333" fill="white" transform="translate(0 0.805664)"/>
</clipPath>
</defs>
</svg>
