<svg width="32" height="32" viewBox="0 0 32 32" fill="none" xmlns="http://www.w3.org/2000/svg">
<path d="M28.7247 21.0001C28.6675 20.9999 28.6107 20.9901 28.5567 20.9711C28.4948 20.949 28.4379 20.915 28.3892 20.8709C28.3405 20.8269 28.301 20.7737 28.2728 20.7143C28.2447 20.655 28.2285 20.5907 28.2252 20.5251C28.222 20.4595 28.2316 20.3939 28.2537 20.3321C28.4765 19.7047 28.6502 19.0609 28.7732 18.4066C28.798 18.2763 28.8735 18.1612 28.9832 18.0866C29.0929 18.012 29.2277 17.984 29.3579 18.0088C29.4882 18.0336 29.6033 18.1092 29.6779 18.2188C29.7525 18.3285 29.7805 18.4633 29.7557 18.5936C29.623 19.2985 29.4358 19.9921 29.1957 20.6681C29.161 20.7652 29.0972 20.8493 29.0128 20.9087C28.9285 20.9682 28.8279 21.0001 28.7247 21.0001Z" fill="#FF8C00"/>
<path d="M25.5848 26C25.4866 25.9996 25.3906 25.9702 25.3089 25.9156C25.2272 25.8609 25.1634 25.7834 25.1255 25.6927C25.0877 25.602 25.0773 25.5022 25.0959 25.4056C25.1145 25.3091 25.161 25.2202 25.2298 25.15C25.815 24.5601 26.3421 23.9153 26.8038 23.2245C26.8774 23.1142 26.9919 23.0376 27.1219 23.0116C27.252 22.9857 27.387 23.0124 27.4973 23.086C27.6077 23.1596 27.6843 23.274 27.7102 23.4041C27.7362 23.5341 27.7094 23.6692 27.6358 23.7795C27.1383 24.5225 26.5703 25.2159 25.9398 25.85C25.8935 25.8973 25.8383 25.9348 25.7774 25.9606C25.7164 25.9863 25.651 25.9997 25.5848 26Z" fill="#FF8C00"/>
<path d="M27.7067 4.54478C27.6192 4.50499 27.5222 4.49123 27.4271 4.50515C27.3321 4.51908 27.243 4.56009 27.1707 4.62328L25.7002 5.91228C23.8341 4.12086 21.508 2.88177 18.9802 2.33262C16.4524 1.78348 13.8218 1.94577 11.3807 2.80148C8.93956 3.65719 6.7834 5.17282 5.15169 7.18003C3.51998 9.18725 2.47659 11.6075 2.13742 14.1719C1.79824 16.7364 2.17655 19.3446 3.23033 21.707C4.2841 24.0694 5.9721 26.0935 8.10683 27.5544C10.2416 29.0153 12.7395 29.8559 15.3231 29.9828C17.9068 30.1097 20.4751 29.518 22.7427 28.2733C22.859 28.2095 22.9452 28.1021 22.9823 27.9748C23.0194 27.8475 23.0045 27.7106 22.9407 27.5943C22.8769 27.478 22.7695 27.3918 22.6422 27.3547C22.5149 27.3175 22.378 27.3325 22.2617 27.3963C20.1578 28.5542 17.7744 29.107 15.3756 28.9932C12.9768 28.8795 10.6563 28.1037 8.67143 26.7519C6.68655 25.4 5.11477 23.525 4.13032 21.3346C3.14588 19.1441 2.78721 16.7238 3.0941 14.342C3.40098 11.9602 4.36142 9.70993 5.86895 7.84057C7.37648 5.97121 9.37222 4.55581 11.6349 3.75127C13.8977 2.94674 16.339 2.78448 18.6882 3.2825C21.0375 3.78053 23.203 4.91936 24.9447 6.57278L23.1727 8.12278C23.096 8.18961 23.0415 8.27825 23.0165 8.37687C22.9915 8.47549 22.9971 8.57939 23.0327 8.6747C23.0683 8.77001 23.1321 8.8522 23.2157 8.91028C23.2992 8.96837 23.3984 8.99959 23.5002 8.99978H27.5002C27.6328 8.99978 27.76 8.9471 27.8537 8.85334C27.9475 8.75957 28.0002 8.63239 28.0002 8.49978V4.99978C28.0001 4.90377 27.9724 4.8098 27.9204 4.72912C27.8683 4.64843 27.7941 4.58444 27.7067 4.54478Z" fill="#FF8C00"/>
<path d="M29.5004 16.0003C29.371 16.0004 29.2465 15.9503 29.1532 15.8605C29.06 15.7707 29.0052 15.6482 29.0004 15.5188C28.9774 14.8731 28.9042 14.2302 28.7814 13.5958C28.758 13.4665 28.7865 13.3331 28.8607 13.2246C28.9349 13.1161 29.0489 13.0412 29.1779 13.016C29.307 12.9909 29.4407 13.0177 29.5502 13.0904C29.6597 13.1632 29.7361 13.2761 29.7629 13.4048C29.8956 14.09 29.975 14.7844 30.0004 15.4818C30.0029 15.5475 29.9924 15.613 29.9695 15.6746C29.9467 15.7362 29.9119 15.7927 29.8672 15.8409C29.8224 15.889 29.7687 15.9279 29.7089 15.9553C29.6492 15.9826 29.5846 15.9979 29.5189 16.0003H29.5004Z" fill="#FF8C00"/>
<path d="M14 14C14 14.3978 14.158 14.7794 14.4393 15.0607C14.7206 15.342 15.1022 15.5 15.5 15.5V12.5C15.1022 12.5 14.7206 12.658 14.4393 12.9393C14.158 13.2206 14 13.6022 14 14Z" fill="#FF8C00"/>
<path d="M18 18C18 17.6022 17.842 17.2206 17.5607 16.9393C17.2794 16.658 16.8978 16.5 16.5 16.5V19.5C16.8978 19.5 17.2794 19.342 17.5607 19.0607C17.842 18.7794 18 18.3978 18 18Z" fill="#FF8C00"/>
<path d="M16 7.5C14.3189 7.5 12.6755 7.99852 11.2777 8.93251C9.87984 9.8665 8.79037 11.194 8.14703 12.7472C7.50368 14.3004 7.33535 16.0094 7.66333 17.6583C7.9913 19.3071 8.80085 20.8217 9.9896 22.0104C11.1783 23.1992 12.6929 24.0087 14.3417 24.3367C15.9906 24.6646 17.6996 24.4963 19.2528 23.853C20.806 23.2096 22.1335 22.1202 23.0675 20.7223C24.0015 19.3245 24.5 17.6811 24.5 16C24.4975 13.7464 23.6012 11.5859 22.0076 9.99237C20.4141 8.39886 18.2536 7.50251 16 7.5ZM19 14.5C19 14.6326 18.9473 14.7598 18.8536 14.8536C18.7598 14.9473 18.6326 15 18.5 15C18.3674 15 18.2402 14.9473 18.1465 14.8536C18.0527 14.7598 18 14.6326 18 14.5V14C18 13.6022 17.842 13.2206 17.5607 12.9393C17.2794 12.658 16.8978 12.5 16.5 12.5V15.5C17.163 15.5 17.7989 15.7634 18.2678 16.2322C18.7366 16.7011 19 17.337 19 18C19 18.663 18.7366 19.2989 18.2678 19.7678C17.7989 20.2366 17.163 20.5 16.5 20.5V21C16.5 21.1326 16.4473 21.2598 16.3536 21.3536C16.2598 21.4473 16.1326 21.5 16 21.5C15.8674 21.5 15.7402 21.4473 15.6465 21.3536C15.5527 21.2598 15.5 21.1326 15.5 21V20.5C14.8372 20.4992 14.2018 20.2356 13.7331 19.7669C13.2644 19.2982 13.0008 18.6628 13 18V17.5C13 17.3674 13.0527 17.2402 13.1465 17.1464C13.2402 17.0527 13.3674 17 13.5 17C13.6326 17 13.7598 17.0527 13.8536 17.1464C13.9473 17.2402 14 17.3674 14 17.5V18C14 18.3978 14.158 18.7794 14.4393 19.0607C14.7206 19.342 15.1022 19.5 15.5 19.5V16.5C14.837 16.5 14.2011 16.2366 13.7322 15.7678C13.2634 15.2989 13 14.663 13 14C13 13.337 13.2634 12.7011 13.7322 12.2322C14.2011 11.7634 14.837 11.5 15.5 11.5V11C15.5 10.8674 15.5527 10.7402 15.6465 10.6464C15.7402 10.5527 15.8674 10.5 16 10.5C16.1326 10.5 16.2598 10.5527 16.3536 10.6464C16.4473 10.7402 16.5 10.8674 16.5 11V11.5C17.1628 11.5008 17.7982 11.7644 18.2669 12.2331C18.7356 12.7018 18.9992 13.3372 19 14V14.5Z" fill="#FF8C00"/>
</svg>
