<svg width="18" height="20" viewBox="0 0 18 20" fill="none" xmlns="http://www.w3.org/2000/svg">
<path d="M17.5965 16.0205C17.5216 15.8735 17.4037 15.7529 17.2586 15.6745C17.1135 15.5961 16.9479 15.5638 16.784 15.5817C16.3596 15.6513 15.9303 15.6866 15.5002 15.6874C13.3453 15.6874 11.2787 14.8313 9.75496 13.3076C8.23123 11.7839 7.3752 9.71726 7.3752 7.56237C7.37123 6.48129 7.58501 5.41047 8.00378 4.41378C8.42256 3.41709 9.03776 2.51494 9.8127 1.76112C9.93443 1.64066 10.015 1.48482 10.0429 1.31585C10.0707 1.14687 10.0445 0.973411 9.96792 0.820234C9.89133 0.667056 9.7683 0.541996 9.6164 0.462913C9.46449 0.383829 9.29148 0.354766 9.12208 0.379874C7.60223 0.612886 6.15904 1.20205 4.91034 2.09927C3.66165 2.99648 2.64286 4.17631 1.93716 5.5424C1.23146 6.9085 0.858856 8.42213 0.849779 9.95971C0.840703 11.4973 1.19541 13.0152 1.88493 14.3896C2.57445 15.7639 3.57924 16.9557 4.81726 17.8675C6.05527 18.7794 7.49141 19.3856 9.0084 19.6365C10.5254 19.8875 12.0802 19.7761 13.5459 19.3114C15.0117 18.8468 16.3467 18.0421 17.4421 16.963C17.564 16.8423 17.6446 16.6861 17.6724 16.5168C17.7001 16.3475 17.6735 16.1738 17.5965 16.0205Z" fill="#8442D6"/>
</svg>
