<svg width="38" height="38" viewBox="0 0 38 38" fill="none" xmlns="http://www.w3.org/2000/svg">
<path d="M27.9301 20.1101C27.5577 20.1633 27.1777 20.1899 26.7901 20.1899C26.4025 20.1899 26.0225 20.1633 25.6501 20.1101V20.6725C25.6501 26.2281 21.7095 30.9743 16.2831 31.9585C16.2413 31.9661 16.1957 31.9699 16.1501 31.9699C16.1045 31.9699 16.0589 31.9661 16.0133 31.9585C10.5869 30.9781 6.65012 26.2319 6.65012 20.6763V9.93748C6.65012 9.51568 6.98832 9.17748 7.41012 9.17748H8.93012C11.3659 9.17748 13.7143 8.45928 15.7245 7.10268C15.9829 6.92788 16.3173 6.92788 16.5757 7.10268C17.3851 7.64988 18.2553 8.08688 19.1597 8.42128C19.4827 7.70308 19.9045 7.03808 20.4061 6.44528C18.7911 5.93988 17.3281 5.02028 16.1501 3.75488C14.2843 5.76128 11.7003 6.89748 8.93012 6.89748H5.13012C4.70832 6.89748 4.37012 7.23568 4.37012 7.65748V20.6459C4.37012 27.4821 9.42412 33.3113 16.1501 34.2499C22.8723 33.3113 27.9301 27.4821 27.9301 20.6459C27.9301 20.6231 27.9339 20.6003 27.9377 20.5737H27.9301V20.1101Z" fill="#FF8C00"/>
<path d="M16.1499 8.63379C13.9839 9.98279 11.4987 10.6934 8.92992 10.6934H8.16992V20.6722C8.16992 25.445 11.5177 29.53 16.1499 30.4382C20.7821 29.53 24.1299 25.445 24.1299 20.6722V19.7564C20.8201 18.6392 18.4299 15.5118 18.4299 11.8334C18.4299 11.1532 18.5135 10.492 18.6655 9.86119C17.7915 9.53819 16.9479 9.13159 16.1499 8.63379Z" fill="#FF8C00"/>
<path d="M26.7902 4.99707C23.0168 4.99707 19.9502 8.06367 19.9502 11.8371C19.9502 15.6067 23.0168 18.6733 26.7902 18.6733C30.5598 18.6733 33.6302 15.6067 33.6302 11.8371C33.6302 8.06367 30.5598 4.99707 26.7902 4.99707ZM30.746 10.0891L26.186 14.6491C26.0378 14.7973 25.844 14.8733 25.6502 14.8733C25.4564 14.8733 25.2588 14.7973 25.1106 14.6491L22.8306 12.3691C22.5342 12.0727 22.5342 11.5901 22.8306 11.2937C23.1308 10.9973 23.6096 10.9973 23.906 11.2937L24.1758 11.5635L25.6502 13.0379L28.599 10.0891L29.6706 9.01367C29.9708 8.71727 30.4496 8.71727 30.746 9.01367C31.0424 9.31387 31.0424 9.79647 30.746 10.0891Z" fill="#FF8C00"/>
</svg>
