<svg width="112" height="25" viewBox="0 0 112 25" fill="none" xmlns="http://www.w3.org/2000/svg">
<path d="M10.5896 11.7867L9.38557 9.89333L2.0796 22H20.3582L21.6606 19.8133H5.88308L10.5896 11.7867Z" fill="#8442D6"/>
<path d="M8.72886 16.7733L7.52488 18.8267L22 18.88L13.3259 4H10.2612L17.7587 16.8267L8.72886 16.7733Z" fill="#8442D6"/>
<path d="M13.8458 16H16.3905L9.38557 4L0 18.88L1.50498 21.3067L9.38557 8.37333L13.8458 16Z" fill="#8442D6"/>
<path d="M38.6504 19L37.3936 15.4316H32.4805L31.2236 19H29L33.7812 6.09766H36.1191L40.8916 19H38.6504ZM36.8486 13.6211L35.627 10.1055C35.5801 9.95312 35.5127 9.73926 35.4248 9.46387C35.3369 9.18262 35.249 8.89844 35.1611 8.61133C35.0732 8.31836 35 8.07227 34.9414 7.87305C34.8828 8.11328 34.8096 8.38281 34.7217 8.68164C34.6396 8.97461 34.5576 9.25 34.4756 9.50781C34.3994 9.76562 34.3408 9.96484 34.2998 10.1055L33.0693 13.6211H36.8486ZM46.3232 6.15039C47.9814 6.15039 49.1914 6.49023 49.9531 7.16992C50.7148 7.84961 51.0957 8.80176 51.0957 10.0264C51.0957 10.583 51.0078 11.1133 50.832 11.6172C50.6621 12.1152 50.3809 12.5576 49.9883 12.9443C49.5957 13.3252 49.0771 13.627 48.4326 13.8496C47.7939 14.0723 47.0059 14.1836 46.0684 14.1836H44.6973V19H42.5879V6.15039H46.3232ZM46.1826 7.89941H44.6973V12.4258H45.8486C46.5107 12.4258 47.0732 12.3496 47.5361 12.1973C47.999 12.0391 48.3506 11.79 48.5908 11.4502C48.8311 11.1104 48.9512 10.6621 48.9512 10.1055C48.9512 9.36133 48.7256 8.80762 48.2744 8.44434C47.8291 8.08105 47.1318 7.89941 46.1826 7.89941ZM65.0703 12.5576C65.0703 13.5479 64.9443 14.4502 64.6924 15.2646C64.4463 16.0732 64.0742 16.7705 63.5762 17.3564C63.0781 17.9365 62.4541 18.3848 61.7041 18.7012C60.9541 19.0176 60.0752 19.1758 59.0674 19.1758C58.042 19.1758 57.1514 19.0176 56.3955 18.7012C55.6455 18.3848 55.0215 17.9336 54.5234 17.3477C54.0312 16.7617 53.6621 16.0615 53.416 15.2471C53.1699 14.4326 53.0469 13.5303 53.0469 12.54C53.0469 11.2158 53.2637 10.0615 53.6973 9.07715C54.1367 8.08691 54.8018 7.31934 55.6924 6.77441C56.5889 6.22363 57.7197 5.94824 59.085 5.94824C60.4209 5.94824 61.5312 6.2207 62.416 6.76562C63.3008 7.31055 63.9629 8.07812 64.4023 9.06836C64.8477 10.0527 65.0703 11.2158 65.0703 12.5576ZM55.2617 12.5576C55.2617 13.5479 55.3965 14.4062 55.666 15.1328C55.9355 15.8535 56.3486 16.4102 56.9053 16.8027C57.4678 17.1895 58.1885 17.3828 59.0674 17.3828C59.9521 17.3828 60.6729 17.1895 61.2295 16.8027C61.7861 16.4102 62.1963 15.8535 62.46 15.1328C62.7236 14.4062 62.8555 13.5479 62.8555 12.5576C62.8555 11.0518 62.5537 9.87402 61.9502 9.02441C61.3525 8.16895 60.3975 7.74121 59.085 7.74121C58.2061 7.74121 57.4824 7.93457 56.9141 8.32129C56.3516 8.70801 55.9355 9.26172 55.666 9.98242C55.3965 10.6973 55.2617 11.5557 55.2617 12.5576ZM67.8301 19V6.15039H69.9395V17.207H75.3975V19H67.8301ZM77.6211 19V6.15039H79.7305V17.207H85.1885V19H77.6211ZM98.8203 12.5576C98.8203 13.5479 98.6943 14.4502 98.4424 15.2646C98.1963 16.0732 97.8242 16.7705 97.3262 17.3564C96.8281 17.9365 96.2041 18.3848 95.4541 18.7012C94.7041 19.0176 93.8252 19.1758 92.8174 19.1758C91.792 19.1758 90.9014 19.0176 90.1455 18.7012C89.3955 18.3848 88.7715 17.9336 88.2734 17.3477C87.7812 16.7617 87.4121 16.0615 87.166 15.2471C86.9199 14.4326 86.7969 13.5303 86.7969 12.54C86.7969 11.2158 87.0137 10.0615 87.4473 9.07715C87.8867 8.08691 88.5518 7.31934 89.4424 6.77441C90.3389 6.22363 91.4697 5.94824 92.835 5.94824C94.1709 5.94824 95.2812 6.2207 96.166 6.76562C97.0508 7.31055 97.7129 8.07812 98.1523 9.06836C98.5977 10.0527 98.8203 11.2158 98.8203 12.5576ZM89.0117 12.5576C89.0117 13.5479 89.1465 14.4062 89.416 15.1328C89.6855 15.8535 90.0986 16.4102 90.6553 16.8027C91.2178 17.1895 91.9385 17.3828 92.8174 17.3828C93.7021 17.3828 94.4229 17.1895 94.9795 16.8027C95.5361 16.4102 95.9463 15.8535 96.21 15.1328C96.4736 14.4062 96.6055 13.5479 96.6055 12.5576C96.6055 11.0518 96.3037 9.87402 95.7002 9.02441C95.1025 8.16895 94.1475 7.74121 92.835 7.74121C91.9561 7.74121 91.2324 7.93457 90.6641 8.32129C90.1016 8.70801 89.6855 9.26172 89.416 9.98242C89.1465 10.6973 89.0117 11.5557 89.0117 12.5576ZM111.063 19H108.664L105.43 13.7354L102.178 19H99.9189L104.19 12.3379L100.209 6.15039H102.538L105.526 11.0195L108.497 6.15039H110.756L106.757 12.3994L111.063 19Z" fill="#8442D6"/>
</svg>
