<svg width="26" height="26" viewBox="0 0 26 26" fill="none" xmlns="http://www.w3.org/2000/svg">
<path d="M21.5965 19.0205C21.5216 18.8735 21.4037 18.7529 21.2586 18.6745C21.1135 18.5961 20.9479 18.5638 20.784 18.5817C20.3596 18.6513 19.9303 18.6866 19.5002 18.6874C17.3453 18.6874 15.2787 17.8313 13.755 16.3076C12.2312 14.7839 11.3752 12.7173 11.3752 10.5624C11.3712 9.48129 11.585 8.41047 12.0038 7.41378C12.4226 6.41709 13.0378 5.51494 13.8127 4.76112C13.9344 4.64066 14.015 4.48482 14.0429 4.31585C14.0707 4.14687 14.0445 3.97341 13.9679 3.82023C13.8913 3.66706 13.7683 3.542 13.6164 3.46291C13.4645 3.38383 13.2915 3.35477 13.1221 3.37987C11.6022 3.61289 10.159 4.20205 8.91034 5.09927C7.66165 5.99648 6.64286 7.17631 5.93716 8.5424C5.23146 9.9085 4.85886 11.4221 4.84978 12.9597C4.8407 14.4973 5.19541 16.0152 5.88493 17.3896C6.57445 18.7639 7.57924 19.9557 8.81726 20.8675C10.0553 21.7794 11.4914 22.3856 13.0084 22.6365C14.5254 22.8875 16.0802 22.7761 17.5459 22.3114C19.0117 21.8468 20.3467 21.0421 21.4421 19.963C21.564 19.8423 21.6446 19.6861 21.6724 19.5168C21.7001 19.3475 21.6735 19.1738 21.5965 19.0205Z" fill="#8442D6"/>
</svg>
