<svg width="40" height="16" viewBox="0 0 40 16" fill="none" xmlns="http://www.w3.org/2000/svg">
<path d="M13.9141 7.8418C13.9141 8.94206 13.7806 9.94466 13.5137 10.8496C13.2533 11.748 12.8431 12.5228 12.2832 13.1738C11.7233 13.8249 11.0039 14.3262 10.125 14.6777C9.24609 15.0228 8.19466 15.1953 6.9707 15.1953C5.77279 15.1953 4.73438 15.0228 3.85547 14.6777C2.98307 14.3262 2.26367 13.8281 1.69727 13.1836C1.13086 12.5326 0.710938 11.7546 0.4375 10.8496C0.164062 9.94466 0.0273438 8.93555 0.0273438 7.82227C0.0273438 6.33789 0.271484 5.04883 0.759766 3.95508C1.25456 2.85482 2.01628 2.00521 3.04492 1.40625C4.07357 0.800781 5.38867 0.498047 6.99023 0.498047C8.61784 0.498047 9.93945 0.800781 10.9551 1.40625C11.9772 2.01172 12.7259 2.86458 13.2012 3.96484C13.6764 5.0651 13.9141 6.35742 13.9141 7.8418ZM4.08984 7.8418C4.08984 8.70117 4.1875 9.4401 4.38281 10.0586C4.57812 10.6771 4.88737 11.1523 5.31055 11.4844C5.73372 11.8164 6.28711 11.9824 6.9707 11.9824C7.68034 11.9824 8.24349 11.8164 8.66016 11.4844C9.08333 11.1523 9.38607 10.6771 9.56836 10.0586C9.75716 9.4401 9.85156 8.70117 9.85156 7.8418C9.85156 6.55273 9.63672 5.53385 9.20703 4.78516C8.77734 4.03646 8.03841 3.66211 6.99023 3.66211C6.29362 3.66211 5.73047 3.83138 5.30078 4.16992C4.8776 4.50846 4.56836 4.99023 4.37305 5.61523C4.18424 6.24023 4.08984 6.98242 4.08984 7.8418ZM22.791 15H18.9336V3.87695H15.4473V0.722656H26.2676V3.87695H22.791V15ZM34.666 3.68164C34.2103 3.68164 33.8034 3.7793 33.4453 3.97461C33.0872 4.16341 32.7812 4.4401 32.5273 4.80469C32.2734 5.16927 32.0781 5.61523 31.9414 6.14258C31.8112 6.66341 31.7461 7.25586 31.7461 7.91992C31.7461 8.81836 31.86 9.57357 32.0879 10.1855C32.3158 10.7975 32.6608 11.2598 33.123 11.5723C33.5918 11.8848 34.1777 12.041 34.8809 12.041C35.5189 12.041 36.1309 11.9531 36.7168 11.7773C37.3092 11.6016 37.9049 11.39 38.5039 11.1426V14.4043C37.8724 14.6842 37.2246 14.8861 36.5605 15.0098C35.903 15.1335 35.2031 15.1953 34.4609 15.1953C32.9115 15.1953 31.6419 14.8893 30.6523 14.2773C29.6693 13.6589 28.9434 12.8027 28.4746 11.709C28.0124 10.6152 27.7812 9.3457 27.7812 7.90039C27.7812 6.81966 27.931 5.83008 28.2305 4.93164C28.5365 4.0332 28.9824 3.25521 29.5684 2.59766C30.1543 1.93359 30.877 1.42253 31.7363 1.06445C32.6022 0.69987 33.5918 0.517578 34.7051 0.517578C35.3952 0.517578 36.1211 0.598958 36.8828 0.761719C37.651 0.917969 38.3997 1.17188 39.1289 1.52344L37.9473 4.56055C37.4264 4.31315 36.8991 4.10482 36.3652 3.93555C35.8314 3.76628 35.265 3.68164 34.666 3.68164Z" fill="#FF8C00"/>
</svg>
