<svg width="32" height="32" viewBox="0 0 32 32" fill="none" xmlns="http://www.w3.org/2000/svg">
<path d="M31.999 1.83588C31.9991 1.59475 31.9517 1.35596 31.8595 1.13315C31.7673 0.91035 31.6321 0.707908 31.4616 0.537402C31.2911 0.366897 31.0886 0.231672 30.8658 0.139461C30.643 0.0472493 30.4042 -0.000140986 30.1631 3.15054e-07H1.83588C1.34898 3.15054e-07 0.882012 0.193423 0.537718 0.537717C0.193423 0.882012 0 1.34898 0 1.83588V30.1577C0 30.6446 0.193423 31.1115 0.537718 31.4558C0.882012 31.8001 1.34898 31.9936 1.83588 31.9936L30.1631 32C30.65 32 31.117 31.8066 31.4612 31.4623C31.8055 31.118 31.999 30.651 31.999 30.1641V1.83588ZM30.0642 30.0652H15.9995V27.1222C15.9989 26.9987 16.0274 26.8768 16.0828 26.7664C16.1383 26.656 16.2189 26.5602 16.3184 26.4869C16.4178 26.4136 16.5331 26.3647 16.6549 26.3444C16.7768 26.3241 16.9017 26.3328 17.0195 26.3698C17.2074 26.4296 17.3912 26.5014 17.5699 26.5848C17.9631 26.7904 18.3979 26.9039 18.8414 26.9168C19.285 26.9296 19.7257 26.8414 20.1301 26.6589C20.5346 26.4764 20.8922 26.2043 21.176 25.8632C21.4598 25.5221 21.6624 25.121 21.7684 24.6901C21.8743 24.2592 21.8809 23.8098 21.7877 23.376C21.6944 22.9422 21.5037 22.5352 21.2301 22.186C20.9564 21.8367 20.6069 21.5542 20.208 21.3599C19.809 21.1655 19.3712 21.0645 18.9274 21.0643C18.4373 21.0643 17.5699 21.3985 17.5699 21.3985C17.3916 21.4818 17.2081 21.5536 17.0206 21.6135C16.9027 21.6508 16.7777 21.6597 16.6557 21.6394C16.5337 21.6192 16.4182 21.5704 16.3187 21.497C16.2191 21.4237 16.1383 21.3278 16.0828 21.2173C16.0274 21.1068 15.9988 20.9848 15.9995 20.8611V15.9995H11.1292C11.0057 15.999 10.8837 16.0277 10.7733 16.0833C10.6629 16.1388 10.5672 16.2196 10.4939 16.3191C10.4206 16.4186 10.3718 16.534 10.3515 16.6558C10.3311 16.7777 10.3398 16.9027 10.3768 17.0206C10.4364 17.2082 10.5082 17.3917 10.5918 17.5698C10.5918 17.5698 10.925 18.4373 10.925 18.9274C10.9263 19.3721 10.8262 19.8112 10.6324 20.2114C10.4387 20.6117 10.1563 20.9625 9.80675 21.2374C9.45718 21.5122 9.0496 21.7038 8.61494 21.7977C8.18029 21.8915 7.72996 21.8851 7.29814 21.7789C6.86632 21.6728 6.46436 21.4697 6.12274 21.185C5.78112 20.9004 5.50882 20.5417 5.32651 20.1361C5.1442 19.7305 5.05666 19.2887 5.07054 18.8443C5.08442 18.3998 5.19935 17.9643 5.40661 17.5709C5.49031 17.3924 5.56213 17.2086 5.62158 17.0206C5.6584 16.9028 5.66693 16.7779 5.64649 16.6562C5.62605 16.5344 5.57721 16.4192 5.50393 16.3199C5.43065 16.2205 5.33499 16.1398 5.22471 16.0843C5.11443 16.0289 4.99262 16.0002 4.86917 16.0005H1.93477V1.93477H15.9995V4.87024C15.9999 4.99369 15.9712 5.1155 15.9157 5.22578C15.8602 5.33606 15.7795 5.43172 15.6802 5.505C15.5808 5.57828 15.4656 5.62712 15.3439 5.64756C15.2221 5.668 15.0973 5.65947 14.9794 5.62265C14.7915 5.56296 14.6077 5.49115 14.4291 5.40768C14.0359 5.20206 13.6011 5.08854 13.1575 5.0757C12.714 5.06285 12.2733 5.15103 11.8689 5.33356C11.4644 5.51608 11.1067 5.78818 10.8229 6.12927C10.5391 6.47036 10.3366 6.87152 10.2306 7.30242C10.1246 7.73331 10.118 8.18265 10.2113 8.61647C10.3046 9.05029 10.4952 9.45723 10.7689 9.80652C11.0426 10.1558 11.3921 10.4383 11.791 10.6326C12.1899 10.8269 12.6278 10.928 13.0715 10.9282C13.5617 10.9282 14.4291 10.595 14.4291 10.595C14.6073 10.5114 14.7908 10.4396 14.9784 10.38C15.0963 10.3428 15.2213 10.3339 15.3433 10.3541C15.4653 10.3744 15.5807 10.4232 15.6803 10.4965C15.7798 10.5699 15.8606 10.6657 15.9161 10.7762C15.9716 10.8867 16.0001 11.0088 15.9995 11.1324V16.0027H20.8751C20.9979 16.002 21.1188 15.9724 21.2281 15.9164C21.3374 15.8604 21.4321 15.7796 21.5044 15.6804C21.5768 15.5811 21.6248 15.4663 21.6447 15.3451C21.6646 15.2239 21.6558 15.0998 21.6189 14.9826C21.5592 14.7947 21.4874 14.6109 21.4039 14.4323C21.4039 14.4323 21.0707 13.5649 21.0707 13.0747C21.0703 12.6305 21.1709 12.1919 21.365 11.7923C21.5591 11.3927 21.8416 11.0425 22.1911 10.7683C22.5406 10.494 22.948 10.3029 23.3823 10.2093C23.8166 10.1158 24.2665 10.1223 24.6979 10.2284C25.1293 10.3345 25.5309 10.5374 25.8723 10.8217C26.2137 11.1059 26.4859 11.4642 26.6684 11.8693C26.8508 12.2743 26.9387 12.7156 26.9253 13.1597C26.912 13.6037 26.7977 14.0389 26.5913 14.4323C26.5078 14.6109 26.436 14.7947 26.3763 14.9826C26.3397 15.0999 26.331 15.224 26.3511 15.3452C26.3711 15.4664 26.4193 15.5812 26.4917 15.6803C26.5642 15.7795 26.6588 15.8604 26.7681 15.9163C26.8775 15.9723 26.9984 16.0019 27.1212 16.0027H30.062L30.0642 30.0652Z" fill="#FF8C00"/>
</svg>
