<svg width="68" height="68" viewBox="0 0 68 68" fill="none" xmlns="http://www.w3.org/2000/svg">
<g clip-path="url(#clip0_264_1779)">
<path d="M45.0783 37.7967L52.547 26.3897L51.2607 25.2393L40.8538 34.0198C38.9413 33.6288 36.8815 34.2125 35.4875 35.7708C33.4022 38.1027 33.6033 41.6868 35.938 43.7722C38.2727 45.8575 41.854 45.6563 43.9393 43.3217C45.3333 41.7633 45.6818 39.6525 45.0783 37.7967ZM34 7.633V0H45.3333V7.633C41.2562 6.9445 37.9893 6.95867 34 7.633ZM59.0778 13.481L63.0643 9.4945L67.0707 13.5008L63.3278 17.2437C62.0188 15.8723 60.5965 14.6172 59.0778 13.481ZM5.66667 25.5H28.3333V31.1667H5.66667V25.5ZM0 36.8333H22.6667V42.5H0V36.8333ZM8.5 48.1667H28.3333V53.8333H8.5V48.1667ZM68 39.6667C68 55.3152 55.3152 68 39.6667 68C31.7617 68 24.65 64.7275 19.5188 59.5H28.8122C32.0365 61.2878 35.7227 62.3333 39.6667 62.3333C52.1645 62.3333 62.3333 52.1645 62.3333 39.6667C62.3333 27.1688 52.1645 17 39.6667 17C35.7227 17 32.0365 18.0455 28.8122 19.8333H19.5188C24.65 14.6058 31.7617 11.3333 39.6667 11.3333C55.3152 11.3333 68 24.0182 68 39.6667Z" fill="#FF8C00"/>
</g>
<defs>
<clipPath id="clip0_264_1779">
<rect width="68" height="68" fill="white"/>
</clipPath>
</defs>
</svg>
