<svg width="68" height="68" viewBox="0 0 68 68" fill="none" xmlns="http://www.w3.org/2000/svg">
<g clip-path="url(#clip0_264_7766)">
<path d="M48.1667 8.5V2.83333C48.1667 1.26933 49.4332 0 51 0C52.5668 0 53.8333 1.26933 53.8333 2.83333V8.5C53.8333 10.064 52.5668 11.3333 51 11.3333C49.4332 11.3333 48.1667 10.064 48.1667 8.5ZM14.1667 11.3333C15.7335 11.3333 17 10.064 17 8.5V2.83333C17 1.26933 15.7335 0 14.1667 0C12.5998 0 11.3333 1.26933 11.3333 2.83333V8.5C11.3333 10.064 12.5998 11.3333 14.1667 11.3333ZM51 48.1667V39.6667H48.1667V51H56.6667V48.1667H51ZM36.8333 49.5833C36.8333 56.6128 42.5538 62.3333 49.5833 62.3333C56.6128 62.3333 62.3333 56.6128 62.3333 49.5833C62.3333 42.5538 56.6128 36.8333 49.5833 36.8333C42.5538 36.8333 36.8333 42.5538 36.8333 49.5833ZM68 49.5833C68 59.755 59.755 68 49.5833 68C39.4117 68 31.1667 59.755 31.1667 49.5833C31.1667 39.4117 39.4117 31.1667 49.5833 31.1667C59.755 31.1667 68 39.4117 68 49.5833ZM27.6618 59.5H5.66667V22.6667H59.5V27.6618C61.5598 28.5968 63.4638 29.8067 65.1667 31.2545V5.66667H56.6667V8.5C56.6667 12.2287 53.0457 15.1272 49.1357 13.8663C46.7812 13.107 45.3333 10.7185 45.3333 8.245V5.66667H19.8333V8.5C19.8333 12.2287 16.2123 15.1272 12.3023 13.8663C9.94783 13.107 8.5 10.7185 8.5 8.245V5.66667H0V65.1667H31.2545C29.8067 63.4638 28.5968 61.5598 27.6618 59.5Z" fill="#FF8C00"/>
</g>
<defs>
<clipPath id="clip0_264_7766">
<rect width="68" height="68" fill="white"/>
</clipPath>
</defs>
</svg>
