<svg width="50" height="52" viewBox="0 0 50 52" fill="none" xmlns="http://www.w3.org/2000/svg">
<path d="M16.7264 20.939C19.8348 17.3221 24.1756 14.7949 29.0974 14.009C29.3996 13.0388 29.5625 12.0072 29.5625 10.9375C29.5625 5.24207 24.9454 0.625 19.25 0.625C13.5546 0.625 8.9375 5.24207 8.9375 10.9375C8.9375 15.7623 12.2509 19.8133 16.7264 20.939ZM11.75 34.375C11.75 30.9992 12.5611 27.8128 13.9989 25H6.125C3.01839 25 0.5 27.5184 0.5 30.625V32.5C0.5 39.2598 6.33005 46.1987 16.3316 47.3376C13.4662 43.7957 11.75 39.2856 11.75 34.375ZM49.25 34.375C49.25 43.6949 41.6949 51.25 32.375 51.25C23.0552 51.25 15.5 43.6949 15.5 34.375C15.5 25.0552 23.0552 17.5 32.375 17.5C41.6949 17.5 49.25 25.0552 49.25 34.375ZM41.1995 35.7025L41.2089 35.6928C41.3847 35.515 41.5175 35.3106 41.6079 35.0927C41.6979 34.8749 41.7485 34.6364 41.75 34.3862V34.375V34.3638C41.7485 34.1136 41.6979 33.8751 41.6079 33.6573C41.5164 33.436 41.3806 33.229 41.201 33.049L33.701 25.5492C32.9686 24.8169 31.7814 24.8169 31.049 25.5492C30.3169 26.2814 30.3169 27.4686 31.049 28.2008L35.3484 32.5H24.875C23.8395 32.5 23 33.3396 23 34.375C23 35.4104 23.8395 36.25 24.875 36.25H35.3484L31.049 40.549C30.3169 41.2814 30.3169 42.4686 31.049 43.201C31.7814 43.933 32.9686 43.933 33.701 43.201L41.1995 35.7025Z" fill="#FF8C00"/>
</svg>
