<svg width="58" height="42" viewBox="0 0 58 42" fill="none" xmlns="http://www.w3.org/2000/svg">
<path fill-rule="evenodd" clip-rule="evenodd" d="M42.7929 35.0841H56.371C57.0416 35.0841 57.5937 34.5321 57.5937 33.8613V32.2753C57.5937 31.6046 57.0416 31.0524 56.371 31.0524H42.7929C42.1223 31.0524 41.5701 31.6045 41.5701 32.2753V33.8613C41.5701 34.5321 42.1223 35.0841 42.7929 35.0841ZM42.7929 29.1775H56.371C57.0416 29.1775 57.5937 28.6255 57.5937 27.9547V26.3687C57.5937 25.6979 57.0416 25.1458 56.371 25.1458H42.7929C42.1223 25.1458 41.5701 25.6979 41.5701 26.3687V27.9547C41.5701 28.6255 42.1223 29.1775 42.7929 29.1775ZM42.7929 40.9907H56.371C57.0416 40.9907 57.5937 40.4387 57.5937 39.7679V38.1819C57.5937 37.5112 57.0416 36.959 56.371 36.959H42.7929C42.1223 36.959 41.5701 37.5111 41.5701 38.1819V39.7679C41.5701 40.4386 42.1223 40.9907 42.7929 40.9907ZM42.7929 17.3643H56.371C57.0416 17.3643 57.5937 16.8123 57.5937 16.1416V14.5556C57.5937 13.8849 57.0416 13.3327 56.371 13.3327H42.7929C42.1223 13.3327 41.5701 13.8849 41.5701 14.5556V16.1416C41.5701 16.8123 42.1223 17.3643 42.7929 17.3643ZM42.7929 19.2393C42.1223 19.2393 41.5701 19.7914 41.5701 20.4621V22.0481C41.5701 22.7188 42.1222 23.2709 42.7929 23.2709H56.371C57.0416 23.2709 57.5937 22.7189 57.5937 22.0481V20.4621C57.5937 19.7913 57.0416 19.2393 56.371 19.2393H42.7929ZM19.6902 14.1496C20.9867 15.5667 22.1461 16.9033 23.1686 18.1704C20.5734 20.8934 18.98 24.5799 18.98 28.6382C18.98 32.7736 20.6351 36.522 23.318 39.2593C20.9054 40.973 17.8315 41.9825 14.4738 41.9259C4.38662 42.0959 -3.14537 32.6537 2.14916 23.3572C3.67916 20.6709 6.04869 17.6567 9.2574 14.1496C9.44841 14.1879 9.64576 14.2081 9.84779 14.2081H19.0999C19.3019 14.2081 19.4992 14.1879 19.6902 14.1496ZM10.527 8.18551L8.069 5.72762C7.24025 4.89887 7.24025 3.54254 8.069 2.71367C8.77388 2.00867 9.88986 1.88961 10.7287 2.42797C11.0403 2.62801 11.3982 2.65988 11.74 2.51832C12.0819 2.37664 12.3124 2.10125 12.3913 1.73949C12.6002 0.782774 13.4568 0.0607812 14.4739 0.0605469C15.4726 0.0605469 16.3436 0.764493 16.5565 1.73949C16.6355 2.10125 16.866 2.37664 17.2079 2.51832C17.5499 2.66 17.9076 2.62801 18.2191 2.42797C19.0431 1.8991 20.1596 1.99437 20.8788 2.71344V2.71355C21.7075 3.54242 21.7075 4.89863 20.8788 5.7275L18.4209 8.18539H10.527V8.18551ZM14.3674 32.1733C13.7442 32.157 13.1391 31.9883 12.6568 31.6671C12.2202 31.3763 11.8867 30.9512 11.7475 30.3925C11.6234 29.8883 11.1141 29.5801 10.6099 29.7041C10.1056 29.8282 9.7974 30.3375 9.92138 30.8417C10.1845 31.8969 10.8065 32.6946 11.6185 33.2355C12.1731 33.6049 12.8172 33.8491 13.4917 33.968V34.6996C13.4917 35.2202 13.9137 35.6422 14.4343 35.6422C14.9548 35.6422 15.3768 35.2202 15.3768 34.6996V33.986C16.1965 33.8611 17.0316 33.5619 17.6873 33.0643C18.4754 32.4664 18.9994 31.6102 18.9721 30.4612C18.969 30.3296 18.9615 30.2139 18.9495 30.115C18.7967 28.856 18.1155 28.0365 17.2123 27.4912C16.419 27.0123 15.4676 26.7737 14.5954 26.6305C13.9663 26.5272 13.3038 26.3524 12.8184 26.0355C12.4424 25.7901 12.1727 25.4347 12.1475 24.9151C12.1202 24.3528 12.3656 23.8992 12.7524 23.5846C13.0554 23.3383 13.4419 23.1672 13.8609 23.0827C14.0295 23.0489 14.2029 23.0292 14.3781 23.0246C14.3967 23.0257 14.4154 23.0264 14.4343 23.0264C14.4569 23.0264 14.4794 23.0255 14.5017 23.0239C14.7333 23.0272 14.9667 23.057 15.1946 23.1147C15.8952 23.2924 16.5331 23.7541 16.8691 24.5541C17.0704 25.034 17.6226 25.2598 18.1025 25.0585C18.5824 24.8572 18.8082 24.305 18.6068 23.8251C18.0153 22.4163 16.8891 21.6023 15.6511 21.2886C15.5603 21.2655 15.4688 21.2453 15.3769 21.2279V20.4976C15.3769 19.977 14.9549 19.5552 14.4344 19.5552C13.9138 19.5552 13.4918 19.9771 13.4918 20.4976V21.2421C12.7777 21.386 12.1072 21.6875 11.567 22.1266C10.7369 22.8016 10.2106 23.7814 10.2699 25.0033C10.3294 26.231 10.9421 27.0545 11.795 27.6112C12.5384 28.0966 13.4515 28.3477 14.2936 28.4859C14.9699 28.597 15.6919 28.7724 16.2406 29.1036C16.6793 29.3686 17.009 29.7556 17.0793 30.3358C17.0887 30.4132 17.0937 30.4693 17.0945 30.5053C17.1054 30.9665 16.8848 31.318 16.5535 31.5695C16.1386 31.8842 15.5561 32.0698 14.9735 32.1405C14.8148 32.1597 14.6763 32.1706 14.5588 32.1734L14.514 32.1743C14.4877 32.172 14.4611 32.1709 14.4343 32.1709C14.4119 32.1709 14.3896 32.1718 14.3674 32.1733ZM9.84791 12.3331H19.1C19.7231 12.3331 20.2363 11.82 20.2363 11.1969C20.2363 10.5737 19.7232 10.0605 19.1 10.0605H9.84791C9.2247 10.0605 8.71154 10.5736 8.71154 11.1968C8.71154 11.82 9.22459 12.3331 9.84791 12.3331ZM34.1558 15.3373C26.81 15.3373 20.855 21.2923 20.855 28.6381C20.855 35.9839 26.81 41.9389 34.1558 41.9389C36.1856 41.9389 38.1087 41.4835 39.8299 40.6705C39.7424 40.3846 39.6951 40.0816 39.6951 39.7679V38.2522C38.065 39.1934 36.1732 39.7321 34.1558 39.7321C31.0924 39.7321 28.3188 38.4904 26.3111 36.4828C24.3034 34.4751 23.0616 31.7016 23.0616 28.6382C23.0616 25.5748 24.3033 22.8012 26.3111 20.7937C28.3188 18.7861 31.0922 17.5442 34.1558 17.5442C36.2879 17.5442 38.2793 18.1459 39.9701 19.1885C40.12 18.8582 40.3263 18.5586 40.5766 18.302C40.1229 17.8367 39.8138 17.2302 39.723 16.5561C38.0293 15.7742 36.1436 15.3373 34.1558 15.3373ZM39.6952 21.2683V22.0481C39.6952 22.8867 40.0318 23.6496 40.5767 24.2084C40.0318 24.7673 39.6952 25.5302 39.6952 26.3688V27.9548C39.6952 28.7934 40.0318 29.5563 40.5767 30.1152C40.0318 30.674 39.6952 31.4368 39.6952 32.2755V33.8615C39.6952 34.4974 39.8888 35.0896 40.2199 35.5824C38.599 36.999 36.4777 37.8574 34.1559 37.8574C31.61 37.8574 29.3052 36.8255 27.637 35.1573C25.9687 33.489 24.9368 31.1841 24.9368 28.6384C24.9368 26.0926 25.9687 23.7877 27.637 22.1195C29.3052 20.4512 31.61 19.4193 34.1559 19.4193C36.2348 19.4191 38.153 20.1073 39.6952 21.2683ZM38.0283 25.1826C38.2328 25.6699 38.0034 26.2307 37.5161 26.4351C37.0288 26.6395 36.468 26.4102 36.2636 25.9229C35.9737 25.2324 35.4233 24.8339 34.8188 24.6806C34.4338 24.583 34.0315 24.5771 33.6572 24.6525C33.2943 24.7256 32.9602 24.8732 32.699 25.0856C32.3734 25.3503 32.1667 25.7318 32.1897 26.2043C32.2106 26.6355 32.4358 26.9313 32.7497 27.1362C33.1748 27.4137 33.7607 27.5677 34.3183 27.6593C35.1186 27.7906 35.9923 28.0101 36.7239 28.4517C37.567 28.9607 38.2029 29.7263 38.3458 30.9034C38.3568 30.9941 38.3637 31.102 38.3666 31.2263C38.3923 32.3042 37.9011 33.1071 37.1627 33.6675C36.5779 34.1111 35.8416 34.3845 35.1129 34.5077V35.065C35.1129 35.5937 34.6844 36.0221 34.1558 36.0221C33.6271 36.0221 33.1986 35.5936 33.1986 35.065V34.4891C32.6055 34.3739 32.04 34.153 31.5497 33.8265C30.7941 33.3232 30.2151 32.5805 29.9702 31.598C29.8442 31.0859 30.1572 30.5687 30.6693 30.4427C31.1814 30.3167 31.6987 30.6297 31.8247 31.1418C31.9438 31.6201 32.2298 31.9843 32.6041 32.2336C33.0674 32.5421 33.6623 32.6893 34.266 32.6749C34.3669 32.6725 34.489 32.6627 34.6313 32.6455C35.1425 32.5835 35.6515 32.4221 36.0111 32.1494C36.2859 31.9409 36.4688 31.6505 36.4598 31.2711C36.4592 31.2439 36.4547 31.1962 36.4464 31.1275C36.3872 30.6399 36.1083 30.3134 35.7368 30.0891C35.2538 29.7976 34.613 29.6422 34.0117 29.5435C33.2378 29.4164 32.3976 29.185 31.7103 28.7363C30.912 28.2152 30.3386 27.4441 30.2828 26.2938C30.2274 25.1514 30.7192 24.2355 31.495 23.6047C31.9758 23.2137 32.5673 22.9405 33.1986 22.8007V22.2107C33.1986 21.6821 33.6271 21.2536 34.1558 21.2536C34.6844 21.2536 35.1129 21.6821 35.1129 22.2107V22.7866C35.1697 22.7986 35.2261 22.8116 35.2824 22.8259C36.4326 23.1178 37.4788 23.8739 38.0283 25.1826Z" fill="#FF8C00"/>
</svg>
