<svg width="60" height="60" viewBox="0 0 60 60" fill="none" xmlns="http://www.w3.org/2000/svg">
<path d="M56.9087 51.2723H55.4542V26.4541C54.9087 26.9996 54.2724 27.545 53.7269 28.0905V51.2723H5.45419V14.0905C5.45419 13.0905 6.27237 12.1814 7.36328 12.1814H30.8178V10.4541H7.27237C5.27237 10.4541 3.63601 12.0905 3.63601 14.0905V51.2723H2.27237C1.81783 51.2723 1.36328 51.6359 1.36328 52.1814C1.36328 55.9996 4.45419 59.0905 8.27237 59.0905H50.8178C54.636 59.0905 57.7269 55.9996 57.7269 52.1814C57.7269 51.6359 57.3633 51.2723 56.9087 51.2723Z" fill="#FF8C00"/>
<path d="M11.9088 38.3637C10.3634 38.8183 9.27246 40.2728 9.27246 41.9092V46.6365C9.27246 47.091 9.6361 47.5455 10.1816 47.5455H32.9088C33.3634 47.5455 33.8179 47.1819 33.8179 46.6365V41.9092C33.8179 40.2728 32.727 38.8183 31.1815 38.3637L25.6361 36.6365V34.7274C28.3634 32.2728 30.0906 27.8183 30.0906 24.5455C30.0906 19.8183 26.2725 15.9092 21.4543 15.9092C16.6361 15.9092 12.8179 19.7274 12.8179 24.5455C12.8179 27.8183 14.5452 32.2728 17.2725 34.7274V36.7274L11.9088 38.3637ZM23.9088 37.2728C23.9088 38.7274 19.1816 38.7274 19.1816 37.2728V35.8183C20.8179 36.6365 22.2725 36.5455 23.9088 35.8183V37.2728ZM16.0906 29.9092C16.9088 28.8183 17.4543 26.7274 17.5452 24.7274C18.9088 25.5455 20.4543 25.9092 22.0906 25.9092C23.5452 25.8183 24.8179 25.4546 25.9088 24.7274C26.0906 26.0001 26.4543 27.6365 27.3634 28.4546C27.4543 28.5455 27.5452 28.5455 27.6361 28.6365C24.9088 35.7274 19.6361 37.1819 16.0906 29.9092ZM57.727 0.90918H33.4543C32.9997 0.90918 32.5452 1.27282 32.5452 1.81827V14.0001C32.5452 21.8183 37.8179 28.4546 45.3634 30.1819C45.5452 30.1819 45.5452 30.1819 45.727 30.1819C53.2725 28.4546 58.6361 21.8183 58.6361 14.0001V1.81827C58.6361 1.27282 58.2725 0.90918 57.727 0.90918ZM53.8179 12.6365L44.3634 22.091C43.9997 22.4546 43.4543 22.4546 43.0906 22.091L37.3634 16.3637C36.9997 16.0001 36.9997 15.4546 37.3634 15.091L39.8179 12.6365C40.1815 12.2728 40.727 12.2728 41.0906 12.6365L43.727 15.2728L50.0906 8.90918C50.4543 8.54554 50.9997 8.54554 51.3634 8.90918L53.8179 11.3637C53.9997 11.5455 54.0906 11.7274 54.0906 12.0001C54.0906 12.2728 53.9997 12.4546 53.8179 12.6365Z" fill="#FF8C00"/>
<path d="M44.3635 17.0911C43.9998 17.4547 43.4544 17.4547 43.0907 17.0911L40.4544 14.4547L39.1816 15.7274L43.7271 20.2729L51.9089 12.0911L50.6362 10.8184L44.3635 17.0911Z" fill="#FF8C00"/>
</svg>
