<svg width="60" height="60" viewBox="0 0 60 60" fill="none" xmlns="http://www.w3.org/2000/svg">
<path d="M11.25 11.7319V13.875L18.75 7.875L11.25 1.875V4.875C6.07219 4.875 1.875 8.71219 1.875 13.4466C1.87643 14.6338 2.14494 15.8056 2.66063 16.875C3.46561 15.2982 4.69799 13.9797 6.2169 13.0702C7.73581 12.1607 9.47996 11.697 11.25 11.7319ZM48.75 48.2681V46.125L41.25 52.125L48.75 58.125V55.125C53.9278 55.125 58.125 51.2878 58.125 46.5534C58.1237 45.3662 57.8552 44.1944 57.3394 43.125C56.5344 44.7018 55.302 46.0203 53.7831 46.9298C52.2642 47.8393 50.52 48.303 48.75 48.2681ZM46.5534 1.875C45.3662 1.87634 44.1944 2.14485 43.125 2.66063C44.7018 3.46561 46.0203 4.69799 46.9298 6.2169C47.8393 7.73581 48.303 9.47996 48.2681 11.25H46.125L52.125 18.75L58.125 11.25H55.125C55.125 6.07219 51.2878 1.875 46.5534 1.875ZM13.4466 58.125C14.6338 58.1237 15.8056 57.8552 16.875 57.3394C15.2982 56.5344 13.9797 55.302 13.0702 53.7831C12.1607 52.2642 11.697 50.52 11.7319 48.75H13.875L7.875 41.25L1.875 48.75H4.875C4.875 53.9278 8.71219 58.125 13.4466 58.125ZM32.8125 33.75C32.8101 33.1704 32.6287 32.6057 32.293 32.1331C31.9574 31.6605 31.484 31.3032 30.9375 31.11V36.39C31.484 36.1968 31.9574 35.8395 32.293 35.3669C32.6287 34.8943 32.8101 34.3296 32.8125 33.75ZM29.0625 23.61C28.5145 23.8009 28.0395 24.1576 27.7033 24.6307C27.3672 25.1038 27.1866 25.6697 27.1866 26.25C27.1866 26.8303 27.3672 27.3962 27.7033 27.8693C28.0395 28.3424 28.5145 28.6991 29.0625 28.89V23.61Z" fill="#FF8C00"/>
<path d="M30 44.0625C32.7813 44.0625 35.5001 43.2378 37.8127 41.6925C40.1253 40.1473 41.9277 37.9511 42.9921 35.3815C44.0564 32.8119 44.3349 29.9844 43.7923 27.2565C43.2497 24.5287 41.9104 22.023 39.9437 20.0563C37.977 18.0896 35.4713 16.7503 32.7435 16.2077C30.0156 15.6651 27.1881 15.9436 24.6185 17.008C22.0489 18.0723 19.8527 19.8747 18.3075 22.1873C16.7623 24.4999 15.9375 27.2187 15.9375 30C15.9375 33.7296 17.4191 37.3065 20.0563 39.9437C22.6935 42.5809 26.2704 44.0625 30 44.0625ZM25.3125 26.25C25.3139 25.1698 25.6876 24.1231 26.3707 23.2863C27.0538 22.4495 28.0044 21.8738 29.0625 21.6563V19.6875H30.9375V21.6563C31.9956 21.8738 32.9462 22.4495 33.6293 23.2863C34.3124 24.1231 34.6861 25.1698 34.6875 26.25H32.8125C32.8101 25.6704 32.6287 25.1057 32.293 24.6331C31.9574 24.1605 31.484 23.8032 30.9375 23.61V29.1563C31.9971 29.3714 32.9498 29.9463 33.6341 30.7835C34.3184 31.6207 34.6922 32.6687 34.6922 33.75C34.6922 34.8313 34.3184 35.8793 33.6341 36.7165C32.9498 37.5537 31.9971 38.1286 30.9375 38.3438V40.3125H29.0625V38.3438C28.0044 38.1262 27.0538 37.5505 26.3707 36.7137C25.6876 35.8769 25.3139 34.8302 25.3125 33.75H27.1875C27.1899 34.3296 27.3713 34.8943 27.707 35.3669C28.0426 35.8395 28.516 36.1968 29.0625 36.39V30.8438C28.0044 30.6262 27.0538 30.0505 26.3707 29.2137C25.6876 28.3769 25.3139 27.3302 25.3125 26.25Z" fill="#FF8C00"/>
</svg>
