<svg width="48" height="18" viewBox="0 0 48 18" fill="none" xmlns="http://www.w3.org/2000/svg">
<path d="M30.8516 5.43359V10.9766C30.8516 11.5742 30.7246 12.1094 30.4707 12.582C30.2207 13.0547 29.8418 13.4297 29.334 13.707C28.8262 13.9805 28.1875 14.1172 27.418 14.1172C26.3203 14.1172 25.4844 13.8301 24.9102 13.2559C24.3398 12.6777 24.0547 11.9102 24.0547 10.9531V5.43359H25.4609V10.8301C25.4609 11.5449 25.6289 12.0723 25.9648 12.4121C26.3008 12.752 26.8027 12.9219 27.4707 12.9219C27.9316 12.9219 28.3066 12.8418 28.5957 12.6816C28.8887 12.5176 29.1035 12.2793 29.2402 11.9668C29.3809 11.6504 29.4512 11.2695 29.4512 10.8242V5.43359H30.8516ZM37.9883 11.668C37.9883 12.1758 37.8633 12.6133 37.6133 12.9805C37.3672 13.3477 37.0117 13.6289 36.5469 13.8242C36.0859 14.0195 35.5352 14.1172 34.8945 14.1172C34.582 14.1172 34.2832 14.0996 33.998 14.0645C33.7129 14.0293 33.4434 13.9785 33.1895 13.9121C32.9395 13.8418 32.7109 13.7578 32.5039 13.6602V12.3359C32.8516 12.4883 33.2402 12.627 33.6699 12.752C34.0996 12.873 34.5371 12.9336 34.9824 12.9336C35.3457 12.9336 35.6465 12.8867 35.8848 12.793C36.127 12.6953 36.3066 12.5586 36.4238 12.3828C36.541 12.2031 36.5996 11.9941 36.5996 11.7559C36.5996 11.502 36.5312 11.2871 36.3945 11.1113C36.2578 10.9355 36.0508 10.7754 35.7734 10.6309C35.5 10.4824 35.1562 10.3242 34.7422 10.1562C34.4609 10.043 34.1914 9.91406 33.9336 9.76953C33.6797 9.625 33.4531 9.45508 33.2539 9.25977C33.0547 9.06445 32.8965 8.83398 32.7793 8.56836C32.666 8.29883 32.6094 7.98242 32.6094 7.61914C32.6094 7.13477 32.7246 6.7207 32.9551 6.37695C33.1895 6.0332 33.5176 5.76953 33.9395 5.58594C34.3652 5.40234 34.8613 5.31055 35.4277 5.31055C35.877 5.31055 36.2988 5.35742 36.6934 5.45117C37.0918 5.54492 37.4824 5.67773 37.8652 5.84961L37.4199 6.98047C37.0684 6.83594 36.7266 6.7207 36.3945 6.63477C36.0664 6.54883 35.7305 6.50586 35.3867 6.50586C35.0898 6.50586 34.8379 6.55078 34.6309 6.64062C34.4238 6.73047 34.2656 6.85742 34.1562 7.02148C34.0508 7.18164 33.998 7.37305 33.998 7.5957C33.998 7.8457 34.0586 8.05664 34.1797 8.22852C34.3047 8.39648 34.4961 8.55078 34.7539 8.69141C35.0156 8.83203 35.3516 8.98828 35.7617 9.16016C36.2344 9.35547 36.6348 9.56055 36.9629 9.77539C37.2949 9.99023 37.5488 10.248 37.7246 10.5488C37.9004 10.8457 37.9883 11.2188 37.9883 11.668ZM46.5957 9.63477C46.5957 10.5996 46.416 11.4062 46.0566 12.0547C45.6973 12.6992 45.1758 13.1855 44.4922 13.5137C43.8086 13.8379 42.9844 14 42.0195 14H39.6406V5.43359H42.2773C43.1641 5.43359 43.9297 5.59375 44.5742 5.91406C45.2188 6.23047 45.7168 6.70117 46.0684 7.32617C46.4199 7.94727 46.5957 8.7168 46.5957 9.63477ZM45.1309 9.67578C45.1309 8.97266 45.0195 8.39453 44.7969 7.94141C44.5781 7.48828 44.2539 7.15234 43.8242 6.93359C43.3984 6.71094 42.873 6.59961 42.248 6.59961H41.0469V12.8223H42.043C43.0781 12.8223 43.8516 12.5586 44.3633 12.0312C44.875 11.5039 45.1309 10.7188 45.1309 9.67578Z" fill="#1F1728"/>
<path d="M9 18C13.9705 18 18 13.9705 18 9C18 4.02944 13.9705 0 9 0C4.02944 0 0 4.02944 0 9C0 13.9705 4.02944 18 9 18Z" fill="#04AF6E"/>
<path d="M8.60685 14.25H9.41602L9.41985 13.3108C11.0573 13.1836 11.9962 12.2156 12 10.8416C11.9962 9.38557 10.8779 8.72107 9.7023 8.42167L9.45038 8.35192L9.46568 6.00996C10.0763 6.12481 10.4695 6.51856 10.5305 7.10918H11.8931C11.8703 5.80488 10.916 4.85332 9.47325 4.70566L9.47707 3.75H8.66797L8.66415 4.70566C7.23283 4.86152 6.20229 5.80488 6.20611 7.1625C6.20611 8.36835 7.00382 9.0615 8.29005 9.41835L8.63363 9.5127L8.61833 11.9941C7.93515 11.8793 7.44274 11.4609 7.39313 10.7185H6C6.05344 12.2567 7.03816 13.1713 8.61067 13.3108L8.60685 14.25ZM9.4275 11.9941L9.44272 9.74235C10.1374 9.95978 10.5802 10.2469 10.584 10.8293C10.5802 11.4363 10.126 11.8711 9.4275 11.9941ZM8.6412 8.13045C8.11447 7.95 7.63358 7.6506 7.64123 7.06817C7.64505 6.53906 8.01525 6.12891 8.6565 6.00996L8.6412 8.13045Z" fill="white"/>
</svg>
