<svg width="33" height="32" viewBox="0 0 33 32" fill="none" xmlns="http://www.w3.org/2000/svg">
<path d="M21.9765 14.3998H19.9465L22.72 9.60008C23.1621 8.8348 22.8996 7.85625 22.1337 7.41443L17.9736 5.01443C17.2077 4.57261 16.2283 4.8348 15.7861 5.60008L11.7829 12.5283C11.4269 13.1443 11.5276 13.8986 11.9799 14.3998H10.7674C10.3253 14.3998 9.9668 14.758 9.9668 15.1998C9.9668 15.6416 10.3253 15.9998 10.7674 15.9998H21.9765C22.4186 15.9998 22.7771 15.6416 22.7771 15.1998C22.7771 14.758 22.4186 14.3998 21.9765 14.3998ZM17.1729 6.40008L21.3331 8.80008L18.0975 14.3998H15.0271L13.1697 13.3283L17.1729 6.40008Z" fill="#FF8C00"/>
<path d="M23.6364 11.2013L22.7125 12.8002H23.5777L27.1806 17.6002H5.56314L9.16604 12.8002H9.81628C9.84882 12.7076 9.89037 12.6167 9.94126 12.5287L10.7089 11.2002H9.16604C8.66202 11.2002 8.18741 11.4373 7.88501 11.8402L3.88178 17.1735C3.6739 17.4504 3.56152 17.7874 3.56152 18.1335V25.6002C3.56152 26.4839 4.27845 27.2002 5.16281 27.2002H27.5809C28.4653 27.2002 29.1822 26.4839 29.1822 25.6002V18.1335C29.1822 17.7874 29.0698 17.4504 28.8619 17.1735L24.8587 11.8402C24.5681 11.453 24.1184 11.2189 23.6364 11.2013Z" fill="#FF8C00"/>
</svg>
