<svg width="294" height="50" viewBox="0 0 294 50" fill="none" xmlns="http://www.w3.org/2000/svg">
<path d="M43.2491 29.7545C42.3685 30.2849 41.3411 30.3814 40.5583 29.9474C39.5798 29.3687 38.9927 28.0666 38.9927 26.2823V20.8329C38.9927 18.2288 37.9653 16.3481 36.204 15.8658C33.2196 14.9978 30.9691 18.6146 30.1374 19.9649L24.8536 28.3077V18.0359C24.8046 15.6729 24.0219 14.2744 22.5541 13.8404C21.5756 13.5511 20.1079 13.6957 18.6891 15.8176L6.89833 34.4322C5.33275 31.4905 4.50104 28.2113 4.50104 24.8838C4.50104 13.6475 13.6499 4.53309 24.8536 4.53309C36.0572 4.53309 45.2061 13.6475 45.2061 24.8838V24.932V24.9802C45.3039 27.1503 44.619 28.8864 43.2491 29.7545ZM49.7071 24.8838V24.8356V24.7873C49.6582 11.1398 38.5035 0 24.8536 0C11.1547 0 0 11.1398 0 24.8838C0 38.5795 11.1547 49.7676 24.8536 49.7676C31.1648 49.7676 37.1336 47.4046 41.7325 43.1126C42.662 42.2446 42.7109 40.8461 41.8303 39.9298C40.9986 39.0135 39.5798 38.9653 38.6502 39.7851C38.6502 39.7851 38.6502 39.7851 38.6013 39.8334C34.8831 43.3055 29.8928 45.2827 24.7557 45.2827C18.738 45.2827 13.3563 42.6786 9.6381 38.5313L20.2547 21.7492V29.5133C20.2547 33.2266 21.7224 34.4322 22.9455 34.7698C24.1686 35.1074 26.0278 34.8662 28.0336 31.7317L33.8556 22.4243C34.0513 22.135 34.1981 21.8456 34.3938 21.6528V26.3787C34.3938 29.8509 35.8126 32.6479 38.2588 33.9982C40.4604 35.252 43.2491 35.1074 45.5486 33.7088C48.3862 31.8763 49.9028 28.6935 49.7071 24.8838ZM84.3456 16.3963C84.9327 16.7339 85.4708 17.5537 85.4708 18.277C85.4708 19.4344 84.4923 20.3989 83.3671 20.3989C83.0735 20.3989 82.8289 20.3025 82.5843 20.2542C81.2633 19.2898 79.5999 18.6628 77.8386 18.6628C73.6801 18.6628 70.8424 21.9903 70.8424 26.1376C70.8424 30.2849 73.729 33.5642 77.8386 33.5642C79.8935 33.5642 81.7526 32.7444 83.1225 31.4423C83.4649 31.2012 83.9053 31.0565 84.3456 31.0565C85.4708 31.0565 86.3515 31.9245 86.3515 33.0337C86.3515 33.7571 85.9111 34.384 85.373 34.7216C83.3671 36.4094 80.6762 37.5186 77.8876 37.5186C71.5274 37.5186 66.3414 32.3586 66.3414 25.9929C66.3414 19.6273 71.5274 14.4673 77.8876 14.4673C80.2359 14.4191 82.4864 15.1425 84.3456 16.3963ZM95.9896 21.2187C100.344 21.2187 103.964 24.8356 103.964 29.3204C103.964 33.7571 100.295 37.5668 95.9896 37.5668C91.4396 37.5668 87.6724 33.8053 87.6724 29.3204C87.6724 24.8356 91.4396 21.2187 95.9896 21.2187ZM95.9406 33.5642C97.8487 33.5642 99.4632 31.7799 99.4632 29.3687C99.4632 26.9574 97.8487 25.4143 95.9406 25.4143C93.8858 25.4143 92.1735 26.9092 92.1735 29.3687C92.1735 31.7316 93.8858 33.5642 95.9406 33.5642ZM106.704 35.0591V23.6782C106.704 22.4243 107.682 21.4116 108.955 21.4116C110.178 21.4116 111.205 22.4243 111.205 23.6782V35.0591C111.205 36.313 110.178 37.3257 108.955 37.3257C107.731 37.3257 106.704 36.2647 106.704 35.0591ZM106.362 17.1197C106.362 15.6247 107.536 14.4673 108.955 14.4673C110.422 14.4673 111.596 15.6729 111.596 17.1197C111.596 18.5664 110.422 19.7238 108.955 19.7238C107.487 19.6755 106.362 18.5182 106.362 17.1197ZM119.816 28.8864V35.0591C119.816 36.313 118.788 37.3257 117.565 37.3257C116.342 37.3257 115.315 36.313 115.315 35.0591V23.1477C115.315 22.1832 116.097 21.4116 117.076 21.4116C118.054 21.4116 118.788 22.2314 118.788 23.1477C120.599 21.4599 122.213 21.2187 123.73 21.2187C128.231 21.2187 130.237 24.5462 130.237 28.356V35.0591C130.237 36.313 129.209 37.3257 127.986 37.3257C126.763 37.3257 125.736 36.313 125.736 35.0591V28.8864C125.736 26.9574 125.491 25.3178 122.653 25.3178C120.647 25.3178 119.816 26.9574 119.816 28.8864ZM144.816 31.2494C144.278 31.2494 143.935 31.0083 143.642 30.6707L138.407 25.0767V35.0591C138.407 36.313 137.38 37.3257 136.156 37.3257C134.933 37.3257 133.906 36.313 133.906 35.0591V15.2871C134.053 14.9496 134.395 14.7084 134.738 14.7084C135.129 14.7084 135.471 15.046 135.716 15.2871L144.082 24.5462C144.327 24.8356 144.62 24.9802 144.816 24.9802C144.963 24.9802 145.305 24.8356 145.55 24.5462L153.916 15.2871C154.161 15.046 154.454 14.7084 154.894 14.7084C155.286 14.7084 155.628 14.9496 155.726 15.2871V35.0591C155.726 36.313 154.748 37.3257 153.476 37.3257C152.253 37.3257 151.225 36.313 151.225 35.0591V25.0767L145.99 30.6707C145.599 31.0083 145.256 31.2494 144.816 31.2494ZM166.441 33.5642C168.447 33.5642 170.159 31.7799 170.159 29.3687C170.159 26.9574 168.398 25.366 166.441 25.366C164.484 25.366 162.869 27.0057 162.869 29.3687C162.869 31.6834 164.435 33.5642 166.441 33.5642ZM171.235 35.5896L171.137 35.0591C170.257 36.747 167.468 37.5186 165.707 37.5186C161.499 37.5186 158.368 33.7571 158.368 29.2722C158.368 24.8356 161.548 21.1705 165.951 21.1705C166.685 21.1705 169.229 21.3634 171.186 23.63L171.284 23.0995C171.284 22.135 172.018 21.3634 172.996 21.3634C173.975 21.3634 174.758 22.1832 174.758 23.0995V35.5414C174.758 36.5059 173.975 37.2775 172.996 37.2775C171.969 37.3257 171.235 36.5059 171.235 35.5896ZM187.136 25.3178H186.646C183.809 25.4625 183.271 27.0539 183.271 28.8864V35.0591C183.271 36.313 182.243 37.3257 181.02 37.3257C179.797 37.3257 178.77 36.313 178.77 35.0591V23.1477C178.77 22.1832 179.552 21.4116 180.531 21.4116C181.509 21.4116 182.243 22.2314 182.243 23.1477C183.907 21.6045 185.276 21.267 186.646 21.2187H187.087C188.163 21.2187 189.141 22.135 189.141 23.2924C189.19 24.3533 188.212 25.3178 187.136 25.3178ZM204.504 33.9982C204.699 34.3358 204.846 34.6733 204.846 35.0591C204.846 36.2165 203.77 37.2775 202.596 37.2775C201.813 37.2775 201.128 36.6988 200.59 36.0236L195.404 30.092V35.0109C195.404 36.2647 194.376 37.2775 193.153 37.2775C191.93 37.2775 190.903 36.2647 190.903 35.0109V16.9268C190.903 15.6729 191.881 14.6602 193.153 14.6602C194.425 14.6602 195.404 15.6729 195.404 16.9268V28.2113L200.59 22.569C201.128 21.9903 201.764 21.3634 202.547 21.3634C203.672 21.3634 204.699 22.3761 204.699 23.5335C204.699 23.8711 204.602 24.2569 204.406 24.5462L200.296 28.9829L204.504 33.9982ZM213.31 25.366C212.087 25.366 210.081 25.993 210.081 27.8737H216.588C216.539 25.993 214.484 25.366 213.31 25.366ZM219.181 30.7189H210.081C210.081 33.3713 212.674 33.8053 213.799 33.8053C214.631 33.8053 215.805 33.6606 216.735 33.2266C217.028 33.0337 217.469 32.889 217.909 32.889C218.887 32.889 219.719 33.7089 219.719 34.7216C219.719 35.3967 219.279 35.9754 218.741 36.313C217.371 37.3257 215.561 37.5668 213.848 37.5668C209.298 37.5668 205.531 35.1556 205.531 29.5133C205.531 25.0767 207.831 21.2187 213.212 21.2187C217.567 21.2187 220.844 24.0158 220.942 28.9829C220.942 29.8991 220.16 30.7189 219.181 30.7189ZM231.706 37.5186H230.483C227.058 37.5186 225.052 36.0236 225.052 30.7672V25.3178H223.878C222.801 25.3178 221.872 24.3533 221.872 23.2924C221.872 22.135 222.85 21.2187 223.878 21.2187H225.052V17.0232C225.052 15.7694 226.03 14.7567 227.302 14.7567C228.526 14.7567 229.553 15.7694 229.553 17.0232V21.2187H231.412C232.488 21.2187 233.418 22.135 233.418 23.2924C233.418 24.3533 232.44 25.3178 231.412 25.3178H229.553V29.8991C229.553 32.9373 229.7 33.5642 231.07 33.5642H231.706C232.782 33.5642 233.712 34.4322 233.712 35.5414C233.712 36.6023 232.782 37.5186 231.706 37.5186ZM253.477 16.3963C254.064 16.7339 254.602 17.5537 254.602 18.277C254.602 19.4344 253.624 20.3989 252.499 20.3989C252.205 20.3989 251.96 20.3025 251.716 20.2542C250.395 19.2898 248.731 18.6628 246.97 18.6628C242.812 18.6628 239.974 21.9903 239.974 26.1376C239.974 30.2849 242.86 33.5642 246.97 33.5642C249.025 33.5642 250.884 32.7444 252.254 31.4423C252.596 31.2012 253.037 31.0565 253.477 31.0565C254.602 31.0565 255.483 31.9245 255.483 33.0337C255.483 33.7571 255.043 34.384 254.504 34.7216C252.499 36.4094 249.808 37.5186 247.019 37.5186C240.659 37.5186 235.473 32.3586 235.473 25.9929C235.473 19.6273 240.659 14.4673 247.019 14.4673C249.367 14.4191 251.667 15.1425 253.477 16.3963ZM264.876 33.5642C266.882 33.5642 268.595 31.7799 268.595 29.3687C268.595 26.9574 266.833 25.366 264.876 25.366C262.87 25.366 261.305 27.0057 261.305 29.3687C261.305 31.6834 262.919 33.5642 264.876 33.5642ZM269.671 35.5896L269.573 35.0591C268.692 36.747 265.904 37.5186 264.143 37.5186C259.935 37.5186 256.804 33.7571 256.804 29.2722C256.804 24.8356 259.984 21.1705 264.387 21.1705C265.121 21.1705 267.665 21.3634 269.622 23.63L269.72 23.0995C269.72 22.135 270.454 21.3634 271.432 21.3634C272.411 21.3634 273.194 22.1832 273.194 23.0995V35.5414C273.194 36.5059 272.411 37.2775 271.432 37.2775C270.405 37.3257 269.671 36.5059 269.671 35.5896ZM285.474 33.5642C287.479 33.5642 289.045 31.6834 289.045 29.3687C289.045 26.9574 287.431 25.366 285.474 25.366C283.468 25.366 281.755 26.9574 281.755 29.3687C281.755 31.7799 283.468 33.5642 285.474 33.5642ZM281.755 36.2165V41.8588C281.755 43.1126 280.728 44.1253 279.505 44.1253C278.282 44.1253 277.254 43.1126 277.254 41.8588V23.1477C277.254 22.1832 278.037 21.4116 279.016 21.4116C279.994 21.4116 280.728 22.2314 280.728 23.3406C282.391 21.6528 284.446 21.2187 286.012 21.2187C290.366 21.2187 293.595 24.8356 293.595 29.3204C293.595 33.7571 290.513 37.5668 286.256 37.5668C284.935 37.5186 282.978 37.1328 281.755 36.2165Z" fill="#8A8A8A"/>
</svg>
