<svg width="236" height="65" viewBox="0 0 236 65" fill="none" xmlns="http://www.w3.org/2000/svg">
<path fill-rule="evenodd" clip-rule="evenodd" d="M32.2887 0.000364584C50.2086 0.000364584 64.6629 14.3704 64.6629 32.2698C64.6629 49.9172 50.0396 64.4553 32.0351 64.3712C14.6224 64.2032 -0.000976562 49.9172 -0.000976562 32.1858C-0.000976562 14.3704 14.3688 -0.0836705 32.2887 0.000364584ZM7.69107 48.9928C7.69107 49.3289 7.86012 49.497 8.02918 49.7491C9.2971 51.5139 10.7341 53.1946 12.4246 54.6232C13.1854 55.2954 13.9461 55.9677 14.7914 56.556C17.1582 58.0686 19.6095 59.4972 22.3144 60.4216C24.5121 61.1779 26.7944 61.7661 29.0766 62.0182C30.8517 62.1863 32.7113 62.2703 34.4864 62.0182C35.5008 61.8502 36.5996 61.8502 37.614 61.43C37.783 61.514 37.8675 61.346 37.9521 61.346C40.0653 61.0098 42.0939 60.3375 44.1226 59.4972C50.7158 56.64 55.7029 52.0181 58.915 45.6314C61.789 40.0011 62.7188 34.0346 61.789 27.816C60.9437 21.8495 58.4078 16.6393 54.3505 12.2695C48.9407 6.13492 42.0094 2.94159 33.8102 2.43738C30.1755 2.18528 26.5408 2.68949 23.0752 3.86598C17.4118 5.71475 12.7627 8.90808 8.95899 13.53C4.64806 18.8242 2.53486 24.8747 2.28128 31.5975C2.19675 33.2782 2.36581 34.8749 2.61939 36.5556C3.12656 40.3372 4.39447 43.9507 6.33862 47.2281C6.84579 47.7323 7.1839 48.4046 7.69107 48.9928Z" fill="#AAADC0"/>
<path fill-rule="evenodd" clip-rule="evenodd" d="M37.6143 61.3464C36.6 61.8506 35.5011 61.8506 34.4868 61.9347C32.7117 62.1868 30.8521 62.1027 29.077 61.9347C26.7947 61.6826 24.5125 61.0943 22.3147 60.338C19.6098 59.4136 17.1585 57.985 14.7918 56.4724C13.9465 55.8841 13.1857 55.2119 12.425 54.5396C10.7344 53.111 9.29744 51.4303 8.02952 49.6655C7.86046 49.4134 7.69141 49.1613 7.69141 48.9092C9.72008 44.3713 10.4808 39.5813 10.9035 34.7073C11.0725 32.4384 11.1571 30.1694 11.5797 27.9005C12.0023 25.2954 13.0167 22.9424 14.8763 20.9255C16.5668 19.1608 18.68 17.9843 20.9623 17.144C22.8219 16.3877 24.7661 15.7154 26.8793 15.6313C28.8234 15.5473 30.683 15.7994 32.5426 16.2196C35.332 16.8919 38.1215 17.7322 40.7418 18.9927C42.855 19.8331 45.0528 20.6734 47.2505 21.3457C49.5327 22.018 51.815 22.7743 53.7591 24.2029C56.2104 26.0517 56.8867 28.4047 55.7878 31.2619C55.1116 33.0266 53.8437 34.3712 52.5757 35.7157C50.2935 38.0687 47.8422 40.2536 45.6445 42.6906C43.1086 45.6319 40.8264 48.6571 39.2203 52.1866C37.8679 55.1278 37.1071 58.1531 37.6143 61.3464ZM53.9282 33.6989C53.8437 33.6989 53.7591 33.6989 53.6746 33.7829C53.5901 33.7829 53.5056 33.8669 53.5056 33.951C53.5056 33.951 53.5056 33.951 53.5056 34.035C53.5901 34.035 53.6746 33.951 53.6746 33.8669L53.9282 33.6989C54.0127 33.6989 54.0972 33.6989 53.9282 33.6989C54.0127 33.6148 53.9282 33.6989 53.9282 33.6989ZM28.0626 19.0768C24.8506 19.0768 22.2302 21.6819 22.2302 24.7912C22.2302 27.9845 24.8506 30.5055 27.9781 30.5896C31.1902 30.5896 33.726 27.9845 33.8105 24.7912C33.8105 21.5978 31.2747 19.0768 28.0626 19.0768ZM32.7962 36.7241C33.3034 37.4805 34.2332 38.1527 35.332 38.4889C37.5298 39.2452 39.7275 39.2452 41.9252 38.825C45.8135 38.0687 49.4482 36.7241 52.7448 34.5392C52.9139 34.3712 53.252 34.3712 53.3365 34.035C53.1674 33.951 53.0829 34.035 52.9984 34.1191C51.8995 34.7913 50.7161 35.2955 49.5327 35.7998C46.4897 37.0603 43.2777 37.9006 39.8966 38.0687C37.4452 38.2368 34.9939 38.0687 32.7962 36.7241ZM48.772 31.7661C49.4482 31.7661 50.0399 31.1778 50.0399 30.4215C50.0399 29.7492 49.4482 29.161 48.6875 29.245C48.0112 29.245 47.5041 29.8333 47.5041 30.5055C47.5041 31.2619 48.0112 31.7661 48.772 31.7661Z" fill="#A9ACBF"/>
<path fill-rule="evenodd" clip-rule="evenodd" d="M32.4582 16.2198C30.5986 15.8836 28.739 15.5475 26.7949 15.6315C24.6817 15.7156 22.822 16.3878 20.8779 17.1442C18.5956 17.9845 16.4824 19.161 14.7919 20.9257C12.9323 22.8586 11.9179 25.2115 11.4953 27.9007C11.1572 30.1696 11.0727 32.4386 10.8191 34.7075C10.3964 39.5815 9.63568 44.4556 7.60701 48.9094C7.01532 48.4052 6.67721 47.6489 6.33909 47.0607C4.39495 43.7833 3.12703 40.1698 2.61987 36.3882C2.36628 34.7075 2.19723 33.1108 2.28175 31.4301C2.53534 24.7073 4.64854 18.6568 8.95946 13.3626C12.6787 8.74066 17.4123 5.54733 23.0756 3.69855C26.5413 2.6061 30.176 2.10189 33.8107 2.26996C41.9254 2.77417 48.8567 6.05154 54.351 12.018C58.4083 16.4719 60.8596 21.6821 61.7894 27.5645C62.7192 33.7831 61.7894 39.7496 58.9155 45.3799C55.7034 51.7666 50.7163 56.3885 44.1231 59.2457C42.179 60.0861 40.1503 60.7584 37.9525 61.0945C37.7835 61.0945 37.699 61.3466 37.6144 61.1785C37.1073 57.9852 37.868 54.9599 39.1359 52.0187C40.742 48.4893 43.0242 45.464 45.5601 42.5228C47.6733 40.0857 50.1246 37.8168 52.4914 35.5478C53.8438 34.2033 55.0272 32.8587 55.7034 31.094C56.8868 28.2368 56.2106 25.8838 53.6747 24.035C51.7306 22.6064 49.4484 21.8501 47.1661 21.1779C44.9684 20.5056 42.7706 19.6652 40.6574 18.8249C40.2348 17.3963 39.2205 16.4719 37.868 15.9677C36.0929 15.5475 34.3178 15.7156 32.4582 16.2198ZM60.0989 34.1192H60.2679C60.606 32.9428 60.606 31.6822 60.606 30.4217C60.606 28.9931 60.437 27.5645 60.1834 26.1359C59.2536 21.514 57.1404 17.4803 53.8438 14.0349C51.8151 11.934 49.5329 10.1693 47.2506 8.32048C45.222 6.63978 43.0242 5.37925 40.4884 4.70697C38.0371 4.11873 35.6703 3.78259 33.1345 4.20276C32.9654 4.20276 32.7963 4.20277 32.7963 4.37084C32.7963 4.53891 32.9654 4.53891 33.1345 4.53891C36.8537 5.21119 40.4039 6.38768 43.8695 7.73224C47.2506 9.0768 50.1246 11.0096 52.2378 14.0349C53.6748 16.1357 55.0272 18.3207 56.1261 20.6736C57.563 23.867 58.6619 27.1443 59.3381 30.5057C59.6762 31.8503 59.9298 32.9428 60.0989 34.1192Z" fill="#8A8A8A"/>
<path fill-rule="evenodd" clip-rule="evenodd" d="M28.0619 19.0762C31.274 19.0762 33.8098 21.6813 33.8098 24.7906C33.8098 27.9839 31.1894 30.5049 27.9774 30.589C24.7653 30.589 22.2295 27.9839 22.2295 24.7906C22.2295 21.5972 24.8499 19.0762 28.0619 19.0762ZM32.1193 24.8746C32.1193 22.6056 30.3442 20.8409 28.0619 20.8409C25.7797 20.8409 24.0046 22.6056 24.0046 24.8746C24.0046 27.0595 25.7797 28.9083 27.9774 28.9083H28.0619C30.2596 28.9083 32.0347 27.1435 32.1193 24.8746Z" fill="#FCFDFB"/>
<path fill-rule="evenodd" clip-rule="evenodd" d="M32.7961 36.7234C34.9938 38.0679 37.4452 38.236 39.8965 38.152C43.2776 37.9839 46.4896 37.2276 49.5326 35.883C50.716 35.3788 51.8994 34.8746 52.9983 34.2023C53.0828 34.1183 53.1673 34.0342 53.3364 34.1183C53.2519 34.3704 52.9983 34.4544 52.7447 34.6225C49.4481 36.8074 45.8134 38.152 41.9251 38.9083C39.7274 39.3284 37.4452 39.3284 35.332 38.5721C34.2331 38.152 33.2188 37.4797 32.7961 36.7234ZM32.458 16.2188C34.2331 15.7146 36.0927 15.5465 37.8678 16.2188C39.2202 16.723 40.2346 17.6474 40.6572 19.076C38.1214 17.7314 35.332 16.8911 32.458 16.2188Z" fill="#7E8295"/>
<path fill-rule="evenodd" clip-rule="evenodd" d="M48.7708 31.7652C48.0946 31.7652 47.5029 31.1769 47.5029 30.5047C47.5029 29.8324 48.0101 29.2441 48.6863 29.2441C49.3625 29.2441 49.9542 29.7484 50.0388 30.4206C49.9542 31.1769 49.4471 31.7652 48.7708 31.7652Z" fill="#FCFDFB"/>
<path fill-rule="evenodd" clip-rule="evenodd" d="M53.6739 33.8663C53.6739 33.9504 53.5894 34.0344 53.5049 34.0344C53.5049 33.8663 53.5894 33.7823 53.6739 33.8663ZM53.9275 33.6982L53.6739 33.8663L53.5894 33.7823C53.7585 33.6982 53.843 33.6982 53.9275 33.6982Z" fill="#A9ACBF"/>
<path fill-rule="evenodd" clip-rule="evenodd" d="M60.0998 34.1189C59.8462 32.9424 59.5927 31.8499 59.4236 30.6734C58.7474 27.228 57.564 23.9506 56.2115 20.8413C55.1972 18.4883 53.8448 16.3034 52.3233 14.2026C50.2101 11.1773 47.4206 9.24449 43.955 7.89993C40.4048 6.55537 36.9392 5.29484 33.2199 4.70659C33.0509 4.70659 32.8818 4.7066 32.8818 4.53853C32.8818 4.37046 33.0509 4.37046 33.2199 4.37046C35.6713 3.95028 38.1226 4.20239 40.5739 4.87467C43.1097 5.54695 45.3074 6.89151 47.3361 8.48817C49.6184 10.3369 51.9006 12.1017 53.9293 14.2026C57.2259 17.648 59.3391 21.6817 60.2689 26.3036C60.5225 27.7322 60.6915 29.1608 60.6915 30.5894C60.6915 31.7659 60.6915 33.0264 60.3534 34.2869L60.0998 34.1189Z" fill="#8A8A8A"/>
<path fill-rule="evenodd" clip-rule="evenodd" d="M32.1205 24.8745C32.1205 27.0595 30.3455 28.9082 28.1477 28.9082H28.0632C25.8655 28.9082 24.0059 27.1435 24.0059 24.8745V24.7905C24.0059 22.5216 25.8655 20.7568 28.0632 20.7568C30.2609 20.7568 32.1205 22.6056 32.1205 24.8745Z" fill="#7E8295"/>
<path fill-rule="evenodd" clip-rule="evenodd" d="M160.349 41.0934C160.265 41.1774 160.18 41.1774 160.096 41.2615C157.475 44.2027 154.179 44.7069 150.628 43.7825C146.233 42.6901 143.866 39.5808 142.936 35.295C142.345 32.5218 142.514 29.7487 143.613 27.1436C145.557 22.5217 149.952 20.0006 154.939 20.6729C157.222 21.009 159.335 21.7653 160.941 23.446C162.124 24.7066 162.8 26.2192 163.054 27.8999C163.139 28.236 162.969 28.3201 162.716 28.3201C161.702 28.3201 160.603 28.3201 159.588 28.3201C159.335 28.3201 159.25 28.236 159.166 27.9839C158.659 25.715 157.137 24.4545 154.939 24.0343C152.403 23.5301 150.206 24.0343 148.515 26.0511C146.994 27.8999 146.571 30.1689 146.571 32.5218C146.571 34.2866 146.909 35.9673 147.67 37.4799C149.445 40.8413 153.84 42.0178 157.137 40.085C158.997 38.9925 159.588 37.2278 159.757 35.211C159.757 34.7908 159.504 34.8748 159.25 34.8748C157.56 34.8748 155.954 34.8748 154.263 34.8748C153.756 34.8748 153.671 34.7067 153.671 34.2866C153.671 33.6143 153.671 33.026 153.671 32.3538C153.671 31.9336 153.84 31.8496 154.179 31.8496C157.053 31.8496 160.011 31.8496 162.885 31.8496C163.223 31.8496 163.392 31.9336 163.392 32.2697C163.392 35.9673 163.392 39.5808 163.392 43.2783C163.392 43.6145 163.308 43.6985 162.969 43.6985C162.293 43.6985 161.448 43.8666 160.941 43.6145C160.434 43.2783 160.603 42.438 160.434 41.7657C160.434 41.5136 160.349 41.2615 160.349 41.0934ZM93.403 28.3201C92.8958 28.3201 92.3886 28.3201 91.7969 28.3201C91.4588 28.3201 91.3743 28.236 91.2898 27.8999C90.6136 25.5469 89.0921 24.1183 86.6408 23.8662C83.9359 23.6141 81.6536 24.4545 80.3012 26.8915C78.2725 30.589 78.357 34.3706 80.3857 37.9841C81.7381 40.4211 84.6966 41.5136 87.4015 40.7573C89.7683 40.085 90.8671 38.3203 91.3743 36.0513C91.5434 35.1269 91.5434 35.1269 92.4732 35.1269C93.3185 35.1269 94.1637 35.1269 95.009 35.1269C95.3471 35.1269 95.4316 35.211 95.3471 35.5471C94.9245 40.001 92.0505 43.4464 87.6551 44.1187C81.3155 45.1271 76.0748 41.2615 75.0604 34.9588C74.6378 32.1857 74.8914 29.4966 75.9902 26.8915C77.9344 22.5217 82.2453 20.1687 87.0634 20.7569C89.3456 21.0931 91.4588 21.8494 93.1494 23.5301C94.3328 24.7906 95.009 26.3032 95.2626 27.9839C95.3471 28.3201 95.2626 28.4041 94.9245 28.4041C94.5018 28.236 93.9102 28.3201 93.403 28.3201ZM217.828 43.6145C216.391 43.6145 215.123 43.6145 213.771 43.6145C213.433 43.6145 213.264 43.4464 213.179 43.1943C211.742 40.8413 210.221 38.5724 208.784 36.2194C208.53 35.7992 208.446 35.7992 208.023 36.1353C206.586 37.1438 205.994 38.4883 206.248 40.2531C206.417 41.1774 206.248 42.1859 206.248 43.1943C206.248 43.6145 206.079 43.6985 205.741 43.6985C204.895 43.6985 204.05 43.6985 203.205 43.6985C202.782 43.6985 202.698 43.5304 202.698 43.1103C202.698 39.6648 202.698 36.2194 202.698 32.6899C202.698 29.0764 202.698 25.4629 202.698 21.7653C202.698 21.1771 202.867 21.009 203.458 21.0931C204.219 21.1771 204.98 21.1771 205.741 21.0931C206.248 21.0931 206.332 21.2611 206.332 21.6813C206.332 25.4629 206.332 29.2445 206.332 33.026V33.6983L206.501 33.7824C206.755 33.4462 207.093 33.1101 207.347 32.7739C209.037 31.0092 210.728 29.3285 212.503 27.5638C212.672 27.3957 212.841 27.2276 213.095 27.2276C214.447 27.2276 215.799 27.2276 217.152 27.2276C217.152 27.4797 216.898 27.5638 216.814 27.7318C215.039 29.4125 213.348 31.0932 211.488 32.7739C211.066 33.1101 211.066 33.3622 211.404 33.8664C213.433 36.8917 215.461 39.9169 217.49 42.9422C217.49 43.1943 217.659 43.3624 217.828 43.6145ZM176.071 36.3874C174.212 36.3874 172.437 36.3874 170.577 36.3874C170.154 36.3874 170.07 36.4715 170.07 36.8917C170.239 40.169 173.282 42.1859 176.325 40.9253C177.17 40.5892 177.846 39.9169 178.184 38.9925C178.354 38.5724 178.607 38.4883 178.945 38.4883C179.706 38.4883 180.551 38.4883 181.312 38.4883C181.735 38.4883 181.819 38.5724 181.65 38.9925C180.72 41.9338 178.692 43.5304 175.649 43.9506C172.944 44.3708 170.408 43.7825 168.464 41.7657C167.111 40.3371 166.52 38.4883 166.351 36.5555C166.182 34.2025 166.52 31.9336 168.041 29.9167C169.985 27.3957 172.606 26.4713 175.649 26.9755C178.861 27.5638 180.805 29.5806 181.735 32.6059C182.073 33.6983 182.157 34.7908 182.073 35.9673C182.073 36.3874 181.904 36.4715 181.566 36.4715C179.791 36.3874 177.931 36.3874 176.071 36.3874ZM174.296 34.0345C175.564 34.0345 176.832 34.0345 178.015 34.0345C178.438 34.0345 178.523 33.9504 178.438 33.5303C178.1 31.3453 176.494 29.7487 174.381 29.6646C172.183 29.5806 170.408 31.0932 170.07 33.3622C169.985 33.7824 170.07 33.9504 170.577 33.9504C171.845 34.0345 173.028 34.0345 174.296 34.0345ZM97.7984 35.4631C97.7984 34.4546 97.9675 33.3622 98.2211 32.3538C99.3199 28.8243 102.447 26.6394 106.336 26.8915C109.294 27.0596 111.746 28.068 113.183 30.6731C114.873 33.8664 114.873 37.2278 113.098 40.3371C111.492 43.2783 108.703 44.2027 105.49 44.0346C100.672 43.7825 97.7984 40.5052 97.7984 35.4631ZM101.433 35.4631C101.433 36.8917 101.687 38.1522 102.532 39.3287C103.884 41.2615 106.505 41.8497 108.449 40.5052C108.872 40.169 109.294 39.8329 109.632 39.4127C111.069 37.3118 111.154 33.7824 109.632 31.5974C107.857 29.0764 104.138 29.0764 102.447 31.6815C101.687 32.7739 101.433 34.1185 101.433 35.4631ZM218.758 35.5471C218.758 33.1941 219.265 31.0932 220.871 29.3285C222.477 27.4797 224.675 26.8075 227.042 26.8075C229.408 26.8075 231.606 27.4797 233.297 29.3285C235.072 31.3453 235.494 33.7824 235.325 36.3874C235.241 37.3118 235.072 38.2362 234.734 39.0766C233.466 42.3539 230.423 44.2027 226.534 43.9506C221.97 43.6985 219.096 40.7573 218.842 36.2194C218.842 36.0513 218.758 35.7152 218.758 35.5471ZM231.691 35.7152C231.691 34.0345 231.268 32.6059 230.676 31.5974C229.408 29.5806 226.704 29.0764 224.759 30.3369C224.252 30.6731 223.83 31.0932 223.491 31.5974C222.054 33.6983 222.139 37.2278 223.491 39.2446C224.844 41.1774 227.464 41.7657 229.408 40.4211C229.916 40.085 230.254 39.7488 230.592 39.2446C231.437 38.1522 231.691 36.8076 231.691 35.7152ZM128.398 29.5806C129.412 28.3201 130.595 27.3957 132.201 26.9755C133.638 26.6394 135.075 26.7234 136.428 27.3117C138.456 28.152 139.302 29.9167 139.386 32.0176C139.471 35.7152 139.386 39.4127 139.386 43.1103C139.386 43.5304 139.302 43.6145 138.879 43.6145C138.034 43.6145 137.188 43.6145 136.343 43.6145C135.921 43.6145 135.751 43.5304 135.751 43.0262C135.751 39.9169 135.751 36.7236 135.751 33.6143C135.751 32.942 135.667 32.2697 135.498 31.6815C134.991 30.0008 133.385 29.3285 131.441 29.8327C129.75 30.3369 128.651 31.8496 128.651 33.7824C128.651 36.8076 128.651 39.9169 128.651 42.9422C128.651 43.4464 128.567 43.6985 127.975 43.6145C127.214 43.5304 126.369 43.5304 125.608 43.6145C125.185 43.6145 125.016 43.5304 125.016 43.0262C125.016 40.6732 125.016 38.4043 125.016 36.0513C125.016 33.3622 125.016 30.6731 125.016 27.9839C125.016 27.3957 125.185 27.2276 125.777 27.3117C126.538 27.3957 127.214 27.3117 127.975 27.3117C128.398 27.3117 128.567 27.3957 128.482 27.8159C128.398 28.4041 128.398 28.9924 128.398 29.5806ZM197.71 32.7739C197.626 32.7739 197.541 32.7739 197.457 32.7739C196.527 32.858 195.935 32.7739 195.513 31.6815C194.498 29.1604 190.441 29.0764 188.75 31.4294C188.159 32.1857 187.905 33.1101 187.736 34.1185C187.567 35.7152 187.567 37.3118 188.243 38.8245C189.089 40.6732 190.61 41.5136 192.554 41.2615C194.16 41.0094 195.259 40.001 195.682 38.2362C195.766 37.732 196.02 37.5639 196.527 37.648C197.372 37.648 198.133 37.648 198.978 37.648C199.401 37.648 199.486 37.816 199.401 38.1522C198.556 42.1859 195.682 44.4548 191.455 44.2027C187.229 43.9506 184.44 41.1774 184.101 36.8917C183.932 35.0429 184.101 33.1941 184.862 31.4294C186.13 28.4882 189.004 26.8074 192.385 26.9755C194.414 27.0596 196.273 27.5638 197.795 28.9924C198.725 29.9167 199.232 31.0932 199.486 32.3538C199.57 32.7739 199.401 32.942 198.978 32.858C198.64 32.7739 198.218 32.7739 197.71 32.7739ZM121.044 35.5471C121.044 37.9841 121.044 40.4211 121.044 42.8581C121.044 43.5304 120.875 43.6985 120.283 43.6145C119.522 43.5304 118.846 43.5304 118.085 43.6145C117.578 43.6145 117.409 43.5304 117.409 42.9422C117.409 38.5724 117.409 34.2025 117.409 29.8327C117.409 29.1604 117.409 28.4881 117.409 27.8159C117.409 27.3957 117.493 27.3117 117.916 27.3117C118.761 27.3117 119.607 27.3117 120.452 27.3117C120.959 27.3117 121.128 27.3957 121.128 27.9839C121.044 30.505 121.044 33.026 121.044 35.5471ZM119.353 21.0931C119.86 21.1771 120.621 20.841 120.959 21.1771C121.297 21.5132 121.044 22.2696 121.044 22.8578C121.044 23.362 121.297 24.0343 120.959 24.3704C120.621 24.7066 119.945 24.4545 119.438 24.4545C118.761 24.4545 117.916 24.7066 117.493 24.3704C117.155 23.9503 117.409 23.1099 117.409 22.5217C117.409 21.0931 117.409 21.0931 118.846 21.0931H119.353Z" fill="#8A8A8A"/>
</svg>
