<svg width="210" height="66" viewBox="0 0 210 66" fill="none" xmlns="http://www.w3.org/2000/svg">
<path d="M38.7673 0.103094C37.2965 0.664175 36.435 1.71223 36.1618 3.26843L36.0568 3.94597L27.3367 5.9468L18.6272 7.94763L18.4591 7.68297C18.1124 7.14306 17.3665 6.4126 16.8727 6.14794C14.9081 5.07871 12.3866 5.89387 11.4411 7.91587C11.1889 8.43461 11.1574 8.65692 11.1574 9.66263C11.1574 10.7001 11.1889 10.8589 11.4516 11.3776C11.6197 11.6952 11.9349 12.1399 12.1555 12.3728L12.5652 12.8068L8.678 20.916L4.80127 29.0358L3.85572 29.0252C3.03625 29.0252 2.83663 29.057 2.19576 29.364C1.35528 29.7662 0.714411 30.3697 0.304675 31.1637C0.0210121 31.693 0 31.8412 0 32.9422C0 33.9796 0.0315182 34.2125 0.252145 34.6572C0.651375 35.4617 1.29224 36.1181 2.0907 36.5098C2.74208 36.838 2.89967 36.8697 3.80319 36.8697H4.79076L8.53091 44.7143C10.5901 49.0335 12.3236 52.6858 12.3971 52.8341C12.5022 53.0881 12.4707 53.1622 12.124 53.5328C11.9034 53.7657 11.6092 54.1997 11.4411 54.5173C11.1679 55.0149 11.1469 55.1842 11.1469 56.2746C11.1469 57.3121 11.1784 57.5344 11.3991 57.9896C12.7543 60.7104 16.505 61.0279 18.1965 58.5613C18.4696 58.1696 18.6587 57.9791 18.7743 58.0214C18.8689 58.0532 22.7246 58.9318 27.3262 59.9905C31.9384 61.0491 35.7836 61.9278 35.8782 61.9596C36.0042 61.9913 36.0883 62.1924 36.1303 62.5841C36.2879 63.8439 37.1704 65.0825 38.3051 65.6119C38.8934 65.8977 39.072 65.9295 40.0491 65.9295C41.0471 65.9295 41.1942 65.8977 41.8036 65.5907C42.6231 65.1778 43.348 64.3838 43.6737 63.5475C43.9678 62.7853 43.9993 61.4196 43.7367 60.7315L43.5791 60.2763L49.8617 55.2266C53.3182 52.4424 56.47 49.9228 56.8693 49.6052L57.5942 49.0335L58.3296 49.4146C59.2856 49.891 60.1051 49.9969 61.0717 49.7428C62.8997 49.277 64.0134 47.8161 64.0134 45.9C64.0134 44.9366 63.7507 44.1532 63.1729 43.391C62.8262 42.9358 62.0698 42.4064 61.4499 42.1947L60.9666 42.0359V32.9422C60.9666 24.2507 60.9771 23.8484 61.1662 23.8484C61.5655 23.8484 62.5005 23.2662 63.0153 22.6945C64.0134 21.5935 64.318 19.995 63.7822 18.5976C63.4776 17.7718 62.6581 16.8614 61.8596 16.4697C61.3028 16.1945 61.1242 16.1627 60.1576 16.1627C59.1491 16.1627 59.023 16.1839 58.3611 16.512C57.9619 16.7132 57.6152 16.872 57.5837 16.872C57.5416 16.872 54.3688 14.3418 50.5446 11.2612L43.5686 5.65038L43.7157 5.29044C44.283 3.91421 43.7892 1.86044 42.6651 0.897076C41.9191 0.272477 41.2993 0.0501622 40.1962 0.0184029C39.5133 -0.0239427 39.0405 0.00781653 38.7673 0.103094ZM36.2354 5.72448C36.2669 5.76683 34.5754 7.18541 32.4847 8.87924L28.671 11.9281L25.1515 11.1236C19.2366 9.7685 19.2156 9.75791 19.2156 9.62029C19.2156 9.53559 21.4954 8.95334 26.013 7.92646C29.7426 7.06896 33.4723 6.20087 34.3128 6.01032C35.9517 5.60803 36.1513 5.58686 36.2354 5.72448ZM37.4015 7.38655C37.3805 7.47124 36.7502 8.8263 36.0042 10.3931C35.0482 12.3833 34.5859 13.262 34.4704 13.2514C34.0291 13.2408 30.8773 12.4363 30.8983 12.341C30.9403 12.1716 37.2019 7.17482 37.328 7.20658C37.391 7.21717 37.4226 7.30186 37.4015 7.38655ZM49.5886 12.6057C55.472 17.3378 56.5856 18.28 56.2284 18.2694C55.9237 18.2588 46.857 16.0992 46.7835 16.0251C46.5943 15.8345 42.5915 7.31245 42.6441 7.22776C42.6756 7.18541 42.7386 7.15365 42.7806 7.17482C42.8437 7.196 45.9009 9.64146 49.5886 12.6057ZM39.2191 11.1871C39.2191 12.9232 39.1981 14.3524 39.1771 14.3524C39.0405 14.3524 36.372 13.7066 36.3404 13.6643C36.2459 13.569 38.9354 8.03232 39.072 8.03232C39.1876 8.02174 39.2191 8.67809 39.2191 11.1871ZM42.9277 11.8117C43.9258 13.8972 44.7243 15.591 44.7033 15.6016C44.6927 15.6122 43.8207 15.4322 42.7701 15.1887L40.8475 14.7441V11.3882C40.8475 8.74161 40.879 8.03232 40.9841 8.03232C41.0577 8.02174 41.9297 9.72615 42.9277 11.8117ZM22.9242 12.2775C25.0254 12.7539 26.8009 13.1773 26.885 13.2091C26.969 13.2408 26.4332 13.749 25.4772 14.5112L23.9223 15.7604L23.4915 15.4005C23.2499 15.1993 22.0942 14.2783 20.9281 13.3255C19.7514 12.3833 18.7848 11.5682 18.7848 11.5047C18.7848 11.4517 18.8584 11.4094 18.9424 11.4094C19.037 11.4094 20.823 11.8011 22.9242 12.2775ZM20.2452 14.9029C22.1678 16.4485 22.546 16.7979 22.4304 16.9143C22.3569 16.9884 21.8211 17.4225 21.2642 17.8777C20.5498 18.4599 20.2136 18.6611 20.1611 18.5658C19.8564 18.0047 17.5871 13.1456 17.5871 13.0397C17.5871 12.7962 17.9023 13.0185 20.2452 14.9029ZM17.4821 16.7449L18.9109 19.7409L18.5327 20.0691C18.3226 20.2385 17.6081 20.8207 16.9568 21.35L15.7591 22.3028V18.0683C15.7591 14.7759 15.7906 13.8125 15.8957 13.7702C15.9587 13.749 16.0322 13.7278 16.0427 13.7384C16.0532 13.7384 16.7046 15.1041 17.4821 16.7449ZM31.6442 14.2889C32.8629 14.5747 33.861 14.797 33.8715 14.8076C33.903 14.85 30.8353 21.2018 30.7827 21.2018C30.6251 21.2018 25.2671 16.7979 25.3406 16.7344C25.9499 16.1309 29.1438 13.6961 29.2699 13.7278C29.3539 13.7702 30.4255 14.0242 31.6442 14.2889ZM14.2357 18.6717L14.2252 23.552L10.485 26.5586C8.42585 28.1995 6.69235 29.5651 6.5978 29.5863C6.51375 29.6074 6.45072 29.5651 6.45072 29.5016C6.45072 29.3957 12.3236 17.0096 13.4898 14.6488C14.2357 13.1456 14.2357 13.1456 14.2357 18.6717ZM37.4121 15.6228L39.2191 16.0251L39.1981 20.0056L39.1666 23.9966L37.2229 24.4413L35.2793 24.8859L33.7349 23.6367C32.8839 22.9486 32.1905 22.3346 32.1905 22.2711C32.1905 22.1334 35.4684 15.2311 35.542 15.2205C35.5735 15.2205 36.4035 15.3899 37.4121 15.6228ZM43.2744 16.9673C44.5772 17.2743 45.6488 17.5283 45.6698 17.5495C45.8379 17.7718 47.7395 21.9535 47.6765 21.9958C47.6344 22.0382 46.1636 22.3981 44.4091 22.7898C42.6546 23.1921 41.1312 23.5414 41.0366 23.5732C40.8475 23.6261 40.837 23.4144 40.837 20.0267C40.837 18.0471 40.8475 16.4168 40.8685 16.4168C40.8896 16.4168 41.9822 16.6708 43.2744 16.9673ZM27.1897 20.482C28.7446 21.7312 30.0263 22.7898 30.0263 22.8427C30.0263 22.8851 29.6376 23.7214 29.1753 24.7059L28.3138 26.4845L26.5488 26.8973C25.5717 27.1196 24.6892 27.2996 24.5631 27.3102C24.374 27.3102 24.227 27.0773 23.7647 26.0822C23.439 25.4152 22.6826 23.8273 22.0732 22.5463L20.9596 20.2385L22.4409 19.0528C23.8592 17.8989 23.9223 17.8671 24.1429 18.0365C24.2585 18.1424 25.6348 19.2433 27.1897 20.482ZM53.8225 19.3916C55.2513 19.7197 55.8187 19.8891 55.8187 20.0056C55.8187 20.122 54.9572 20.3655 52.6248 20.8948C50.8703 21.2971 49.4205 21.6253 49.41 21.6147C49.3995 21.6041 49.0107 20.7784 48.538 19.7833L47.687 17.9836L49.7567 18.4494C50.8913 18.714 52.7194 19.1375 53.8225 19.3916ZM21.2222 24.5683C22.0312 26.2727 22.651 27.6913 22.609 27.7548C22.5565 27.7972 21.0541 28.1677 19.2681 28.57C17.4821 28.9723 15.9587 29.3322 15.8957 29.3534C15.7906 29.3957 15.7591 28.8664 15.7591 26.9079V24.4095L17.6817 22.8745C18.7323 22.0276 19.6253 21.3712 19.6673 21.4136C19.7094 21.4559 20.4133 22.8851 21.2222 24.5683ZM56.2914 21.9111C56.2704 21.9958 55.1883 22.9274 53.875 23.9755L51.5007 25.881L50.8808 24.653C50.5341 23.9649 50.2399 23.3403 50.2294 23.2768C50.2084 23.1815 51.1014 22.9274 53.0661 22.4616C56.2704 21.6994 56.344 21.6888 56.2914 21.9111ZM57.5311 23.4779C57.4786 23.7214 53.9906 30.9096 53.9276 30.9096C53.8855 30.9096 53.8015 30.8037 53.7385 30.6555C53.6754 30.5285 53.2972 29.7451 52.9085 28.9087L52.2046 27.4055L54.768 25.3411C57.1004 23.4779 57.5942 23.1391 57.5311 23.4779ZM49.3364 25.2035C49.7777 26.1563 50.1454 26.9291 50.1454 26.9503C50.1454 26.9608 48.8426 28.0195 47.2562 29.2899C45.6593 30.5602 44.283 31.6612 44.1885 31.7565C44.0414 31.8835 43.8207 31.7353 42.4339 30.6237L40.8475 29.3534V27.3102V25.267L41.688 25.0765C42.1398 24.9706 43.8418 24.5789 45.4387 24.2084C47.0461 23.8273 48.3909 23.5203 48.4329 23.5097C48.4749 23.4991 48.8742 24.2613 49.3364 25.2035ZM32.7053 24.9177C33.0205 25.1717 33.1256 25.3094 33.031 25.3623C32.9575 25.4046 32.4007 25.5528 31.8123 25.6799C31.2135 25.8069 30.6462 25.9445 30.5516 25.9657C30.415 26.0081 30.4886 25.7646 30.8773 24.9283L31.3816 23.8379L31.8123 24.1978C32.0435 24.3989 32.4532 24.7165 32.7053 24.9177ZM59.3382 32.921C59.3382 39.9716 59.3067 41.6971 59.2016 41.7395C59.107 41.7712 58.4031 40.4056 57.0163 37.5049C55.8817 35.1441 54.9361 33.1221 54.9256 33.0374C54.8731 32.7834 59.0125 24.166 59.2016 24.166C59.3172 24.1554 59.3382 25.6799 59.3382 32.921ZM14.1937 29.6921C14.1096 29.7768 7.69043 31.2272 7.6379 31.1742C7.53284 31.0578 7.95308 30.6873 10.9893 28.2418L14.1832 25.6905L14.2147 27.6595C14.2252 28.7394 14.2147 29.6604 14.1937 29.6921ZM39.2191 26.8338C39.2191 27.7125 39.1876 27.956 39.093 27.903C39.0195 27.8501 38.4837 27.4478 37.9268 27.0032L36.9078 26.188L37.8743 25.9445C39.3452 25.5846 39.2191 25.4999 39.2191 26.8338ZM37.0443 28.4112L39.2191 30.1579V32.9633V35.7687L37.0654 37.4837C35.8782 38.4365 34.8381 39.2093 34.7645 39.2093C34.4599 39.2093 29.4275 38.0131 29.3959 37.939C29.3854 37.8966 28.8391 36.7533 28.1982 35.3982L27.0321 32.9528L28.2087 30.4861C28.8601 29.1311 29.4169 27.9983 29.459 27.956C29.522 27.8925 34.4178 26.7068 34.733 26.6856C34.8065 26.6644 35.8466 27.4478 37.0443 28.4112ZM27.3262 28.4853C27.3262 28.6229 26.2126 30.9202 26.1391 30.9202C26.1075 30.9202 25.8554 30.4649 25.5717 29.9039L25.0779 28.8876L26.076 28.6547C27.2002 28.4006 27.3262 28.3688 27.3262 28.4853ZM52.0155 30.8143L53.0345 32.9422L51.9944 35.1441C51.4166 36.351 50.9018 37.3355 50.8493 37.3144C50.6392 37.272 45.3967 33.0374 45.4177 32.9528C45.4702 32.7834 50.8493 28.5276 50.9228 28.6017C50.9544 28.6441 51.4481 29.6392 52.0155 30.8143ZM24.3215 31.0578C24.7733 32.0317 25.1515 32.8681 25.1515 32.9316C25.1515 33.1751 23.481 36.5839 23.3655 36.5839C23.2394 36.5839 16.2844 34.9959 15.9377 34.8795C15.7696 34.8266 15.7381 34.636 15.7381 32.9316V31.0472L16.7992 30.8037C17.377 30.6661 19.0685 30.2744 20.5498 29.925C22.0417 29.5863 23.3129 29.2899 23.3655 29.2899C23.439 29.2899 23.8592 30.0838 24.3215 31.0578ZM14.2147 34.4666C14.1832 34.4878 10.5586 33.6832 8.32079 33.1433C8.18421 33.1116 8.06865 33.0269 8.06865 32.9422C8.06865 32.8469 9.05622 32.5716 11.1259 32.0953L14.1727 31.3966L14.2042 32.9104C14.2252 33.7467 14.2252 34.4454 14.2147 34.4666ZM42.602 32.8787C42.6651 32.9422 42.0032 33.535 40.9841 34.329C40.879 34.4031 40.8475 34.1173 40.8475 32.9422V31.4495L41.688 32.127C42.1398 32.4975 42.56 32.8363 42.602 32.8787ZM47.0356 36.4251C48.6535 37.7272 50.0193 38.8176 50.0613 38.8706C50.1559 38.9553 48.58 42.3535 48.4434 42.3535C48.3383 42.3535 41.3203 40.7444 41.0366 40.6491C40.8685 40.5962 40.837 40.395 40.837 38.553L40.8475 36.5098L42.3814 35.2924C43.2219 34.6148 43.9573 34.0643 43.9993 34.0643C44.0414 34.0643 45.4177 35.1336 47.0356 36.4251ZM10.7897 35.377C12.3551 35.737 13.7419 36.0546 13.8785 36.0863C14.1201 36.1393 14.1201 36.1604 14.1201 38.1613V40.1727L10.8738 37.5578C9.08774 36.1181 7.62739 34.8901 7.62739 34.8371C7.6379 34.6678 7.79549 34.6995 10.7897 35.377ZM26.7904 36.2451L27.3998 37.5261L26.5278 37.325C26.0445 37.2191 25.6032 37.1132 25.5402 37.1132C25.4877 37.1132 25.3721 37.0709 25.2881 37.0179C25.1725 36.9438 25.2355 36.7215 25.5927 35.9275C25.8554 35.3876 26.0865 34.9324 26.118 34.9324C26.1496 34.9324 26.4542 35.5253 26.7904 36.2451ZM55.7451 38.6165C56.7117 40.6385 57.4996 42.3641 57.4996 42.4276C57.4996 42.5017 57.4576 42.5652 57.4051 42.5652C57.279 42.5652 52.2571 38.5424 52.2571 38.4365C52.2571 38.3201 53.875 34.943 53.9381 34.943C53.9591 34.943 54.768 36.6051 55.7451 38.6165ZM10.4325 39.3152L14.1201 42.29V47.2338C14.1201 50.8015 14.0886 52.1671 14.0046 52.1354C13.8575 52.0824 6.33515 36.3828 6.4192 36.2981C6.45072 36.2663 6.54527 36.2663 6.61881 36.2875C6.69236 36.3298 8.41535 37.6955 10.4325 39.3152ZM19.5938 37.4096L22.7456 38.1401L21.2222 41.3372C20.2557 43.3592 19.6568 44.5237 19.5623 44.492C19.4887 44.4708 18.5957 43.7721 17.5871 42.9569L15.7486 41.4748V39.0188V36.5521L16.1058 36.6262C16.2844 36.658 17.8708 37.0179 19.5938 37.4096ZM39.2191 39.0717V40.2574L38.116 39.9927C37.5066 39.8445 37.0023 39.7069 36.9813 39.6857C36.9498 39.6645 39.114 37.8966 39.1981 37.8754C39.2086 37.886 39.2191 38.4259 39.2191 39.0717ZM26.2231 38.9235C27.1581 39.1458 28.0091 39.3364 28.1247 39.3787C28.2508 39.4105 28.6185 40.0457 29.1753 41.2208C29.6481 42.2159 30.0263 43.0416 30.0263 43.0628C30.0263 43.1157 24.248 47.7949 24.0168 47.9431C23.9433 47.9855 23.2604 47.5091 22.4304 46.8316L20.9596 45.6565L22.6616 42.0994C23.5966 40.1409 24.3951 38.5318 24.4476 38.5318C24.4791 38.5424 25.2776 38.7224 26.2231 38.9235ZM32.3166 41.2843L31.3816 42.0359L31.0034 41.2949C30.8037 40.8926 30.5726 40.4056 30.4991 40.215L30.3625 39.8763L31.8123 40.2045L33.2517 40.5432L32.3166 41.2843ZM53.9696 42.0147C55.3039 43.084 56.365 44.005 56.3124 44.0685C56.2704 44.132 55.1463 43.9309 53.3287 43.4968C51.7318 43.1263 50.3555 42.7981 50.282 42.777C50.1664 42.7346 51.3431 40.0668 51.4797 40.0668C51.5217 40.0668 52.6458 40.9455 53.9696 42.0147ZM37.0759 41.4325C37.9794 41.6442 38.8409 41.8348 38.9775 41.8665L39.2191 41.9195V45.8894V49.8593L37.7377 50.2086C36.9183 50.3992 36.0778 50.6003 35.8887 50.6427L35.521 50.7379L34.733 49.0865C34.3023 48.176 33.5353 46.5669 33.0205 45.4977L32.096 43.5815L33.6614 42.3217C34.5229 41.623 35.2688 41.062 35.3319 41.062C35.3844 41.0514 36.1723 41.2208 37.0759 41.4325ZM44.3986 43.1157C46.2056 43.5286 47.708 43.8885 47.729 43.9097C47.75 43.9309 47.2877 44.9578 46.6994 46.1752L45.6278 48.3983L43.3165 48.9171C42.0452 49.2029 40.9736 49.4252 40.9211 49.4252C40.8685 49.4252 40.837 47.8373 40.837 45.8788C40.837 43.0628 40.8685 42.3323 40.9736 42.3323C41.0577 42.3535 42.5915 42.6923 44.3986 43.1157ZM17.2404 44.7672C17.9969 45.3812 18.6798 45.9423 18.7638 46.0058C18.8794 46.1223 18.6693 46.6622 17.4611 49.1606C16.6731 50.812 15.9797 52.1565 15.9167 52.1354C15.8011 52.093 15.675 43.6662 15.8011 43.6662C15.8326 43.6662 16.484 44.1638 17.2404 44.7672ZM52.6984 45.0319C54.4003 45.4236 55.8187 45.7412 55.8397 45.7412C55.8607 45.7412 55.8817 45.8153 55.8817 45.9C55.8817 45.9846 55.8607 46.0587 55.8397 46.0587C55.7661 46.0587 48.1702 47.8055 47.9706 47.869C47.8656 47.9008 47.771 47.8796 47.771 47.8267C47.771 47.6255 49.41 44.312 49.515 44.312C49.557 44.3226 50.9964 44.6402 52.6984 45.0319ZM32.3586 47.8902C33.1676 49.5946 33.7875 51.0132 33.7454 51.0767C33.6929 51.1191 32.6213 51.3943 31.3711 51.6801L29.1018 52.1989L27.2002 50.685C26.1496 49.8593 25.2986 49.1394 25.3091 49.097C25.3511 48.9488 30.7407 44.6719 30.8143 44.7354C30.8458 44.7778 31.5497 46.207 32.3586 47.8902ZM22.483 49.0124C22.609 49.1076 17.7552 53.0352 17.6187 52.9505C17.5556 52.9082 18.0599 51.7119 18.8584 50.0181L20.2241 47.1703L21.3063 48.049C21.9156 48.536 22.4409 48.97 22.483 49.0124ZM56.1864 47.9855C55.5875 48.5783 42.7176 58.7942 42.6441 58.7201C42.581 58.6566 46.5628 50.0922 46.7729 49.8593C46.899 49.7216 56.2494 47.6255 56.2914 47.7314C56.3229 47.7843 56.2704 47.8902 56.1864 47.9855ZM25.4982 51.4155C26.3282 52.0824 27.0006 52.6435 26.9795 52.6541C26.9585 52.6753 25.1935 53.0881 23.0503 53.5857C20.907 54.0833 19.0685 54.4961 18.9634 54.5385C18.3961 54.6867 19.037 54.0727 21.3168 52.2306C22.6931 51.1296 23.8487 50.2298 23.8908 50.2192C23.9328 50.2086 24.6577 50.7485 25.4982 51.4155ZM43.9363 51.966C41.4884 57.111 41.0471 57.9685 40.9526 57.8732C40.8791 57.7991 40.858 56.5499 40.8685 54.4538L40.9001 51.1508L42.6336 50.7379C43.5896 50.5156 44.4511 50.3357 44.5457 50.3251C44.6822 50.3145 44.5457 50.685 43.9363 51.966ZM39.1035 57.8732C39.0195 57.9579 38.9669 57.9579 38.9459 57.8732C38.9144 57.8097 38.3156 56.5393 37.6012 55.0572C36.8867 53.5645 36.2984 52.3259 36.2984 52.273C36.2984 52.22 36.9498 52.0401 37.7377 51.8707L39.1666 51.5531L39.1981 54.6443C39.2191 56.8781 39.1876 57.7991 39.1035 57.8732ZM36.0252 55.5548C37.6852 59.0271 37.5381 58.7095 37.349 58.7095C37.1599 58.7095 30.7407 53.5857 30.8248 53.5116C30.8668 53.4692 34.2812 52.6435 34.5124 52.6223C34.5754 52.6117 35.2583 53.935 36.0252 55.5548ZM32.5057 57.058C34.5859 58.7307 36.2459 60.1387 36.2039 60.2022C36.1618 60.2763 33.1571 59.6305 27.9146 58.4237C23.397 57.3862 19.5833 56.5075 19.4572 56.4758C18.7428 56.3064 19.3521 56.1053 23.7332 55.089C26.2126 54.5067 28.3558 54.0409 28.4819 54.0303C28.6395 54.0197 29.9528 55.0149 32.5057 57.058Z" fill="#8A8A8A"/>
<path d="M164.745 15.8132L164.472 16.0778V28.7815V41.4747L164.724 41.7711C165.071 42.1734 165.827 42.1734 166.184 41.7605L166.426 41.4747V28.7815V16.0778L166.153 15.8132C165.785 15.4321 165.113 15.4321 164.745 15.8132Z" fill="#8A8A8A"/>
<path d="M97.8112 16.0783C96.645 16.47 95.6259 17.518 95.2792 18.6931C95.0166 19.593 95.1322 20.8739 95.5209 21.6785C95.9096 22.4725 96.7921 23.3088 97.5275 23.5735L98.0528 23.7746L98.0633 32.4343C98.0633 38.8391 98.0949 41.1998 98.1894 41.4857C98.3365 41.9409 98.8618 42.1738 99.3871 42.015C100.091 41.8033 100.049 42.4702 100.081 32.6566C100.102 24.2616 100.112 23.7217 100.301 23.7217C100.637 23.7217 101.572 23.0865 102.087 22.5254C102.823 21.6997 103.064 20.9798 103.012 19.6882C102.959 18.4814 102.676 17.8039 101.909 17.031C100.9 16.0042 99.2085 15.6125 97.8112 16.0783Z" fill="#8A8A8A"/>
<path d="M82.4718 23.7218C79.8033 24.0606 77.8491 25.2145 76.9981 26.9718L76.5884 27.7976V29.2162C76.5884 30.4865 76.6199 30.6982 76.8406 31.1429C77.5655 32.6144 79.1519 33.3554 82.1671 33.6307C82.85 33.6942 83.8586 33.7471 84.3839 33.7471C86.4746 33.7471 88.5022 34.1812 89.3848 34.827C90.4038 35.568 90.4669 37.5265 89.5108 38.7439C88.5548 39.9614 86.0018 40.6389 83.2177 40.3848C81.064 40.1943 79.404 39.5803 78.2168 38.511C77.6495 38.0135 77.5234 37.9394 77.1032 37.9394C76.5044 37.9394 76.2207 38.2464 76.2207 38.9027C76.2207 39.305 76.2837 39.4109 76.8511 39.9614C77.5235 40.6177 78.7527 41.327 79.8978 41.6975C81.1375 42.1104 82.5138 42.2904 84.552 42.2798C87.4727 42.2692 88.7439 41.9622 90.0992 40.9353C91.7696 39.6755 92.4525 37.9605 92.1268 35.875C91.8957 34.3823 91.1498 33.3872 89.805 32.752C88.7019 32.2439 87.3991 32.0216 84.2893 31.8522C81.3266 31.6934 80.5912 31.5558 79.5826 31.0582C78.7527 30.6453 78.469 30.0842 78.532 29.015C78.5951 27.8082 79.0258 27.1518 80.171 26.506C81.5052 25.765 82.1251 25.6379 84.1738 25.6379C85.7917 25.6379 86.1069 25.6697 86.8213 25.892C87.8614 26.2308 88.5968 26.6013 89.1956 27.0989C89.8365 27.6282 90.0781 27.7658 90.4984 27.7658C91.2653 27.7658 91.6435 26.7389 91.1287 26.072C90.5089 25.278 88.4497 24.2405 86.7687 23.8912C85.7392 23.6795 83.4909 23.5948 82.4718 23.7218Z" fill="#8A8A8A"/>
<path d="M113.36 23.6787C112.614 23.8057 111.721 24.0809 111.143 24.3774C110.46 24.7267 109.43 25.616 108.958 26.2723L108.653 26.6958V25.7218C108.653 24.5044 108.453 24.028 107.897 23.901C107.655 23.8375 107.413 23.848 107.214 23.9222C106.583 24.1656 106.594 24.028 106.594 32.9841C106.594 42.0143 106.583 41.8556 107.235 41.9826C107.634 42.0673 107.613 42.0673 108.012 41.9826C108.642 41.8661 108.653 41.7179 108.653 36.1918C108.653 30.8245 108.695 30.3058 109.262 28.8978C109.577 28.1144 110.281 27.1298 110.87 26.6429C111.111 26.4523 111.616 26.1559 111.994 25.9653C112.582 25.6901 112.845 25.6266 113.759 25.5842C116.06 25.4784 117.531 26.2512 118.382 27.9979C119.075 29.4271 119.075 29.4271 119.138 35.7789C119.212 42.1308 119.17 41.8132 119.852 42.0038C120.252 42.1202 120.85 41.972 120.977 41.7179C121.029 41.6227 121.092 39.1772 121.124 36.2977C121.176 30.6763 121.208 30.3905 121.796 28.9295C122.122 28.1144 122.815 27.1404 123.414 26.6429C123.656 26.4523 124.16 26.1559 124.538 25.9653C125.158 25.6689 125.389 25.6266 126.398 25.5842C127.364 25.5419 127.69 25.5736 128.299 25.7536C129.623 26.1559 130.642 27.151 131.136 28.4531C131.63 29.7764 131.693 30.5916 131.693 36.1918V41.4533L131.945 41.7391C132.355 42.2261 133.458 42.099 133.584 41.538C133.626 41.4003 133.636 38.5949 133.615 35.3026C133.573 29.4906 133.573 29.2895 133.332 28.432C132.481 25.3725 130.653 23.848 127.553 23.6257C124.612 23.4246 122.069 24.5997 120.819 26.7276C120.651 27.0346 120.472 27.2886 120.441 27.2886C120.409 27.2886 120.241 27.0134 120.073 26.6746C119.075 24.7691 117.257 23.7104 114.82 23.6363C114.2 23.6469 113.549 23.6575 113.36 23.6787Z" fill="#8A8A8A"/>
<path d="M148.093 23.7318C146.096 24.007 143.859 25.3091 142.755 26.8547L142.419 27.31L142.377 25.8384C142.346 24.4834 142.325 24.3564 142.094 24.1235C141.747 23.7741 140.99 23.7741 140.644 24.1235L140.392 24.3775V36.4249V48.4828L140.696 48.7475C141.096 49.0968 141.642 49.0968 142.041 48.7475L142.346 48.4828L142.377 43.5601L142.409 38.648L142.819 39.1668C143.375 39.8655 143.995 40.416 144.888 41.0088C146.412 42.0039 147.494 42.2686 149.921 42.2686C151.791 42.2792 152.684 42.0992 153.997 41.4217C156.371 40.2254 157.685 38.6374 158.483 35.9802C158.756 35.0698 158.777 34.8687 158.777 32.9843C158.777 30.7294 158.672 30.0624 158.021 28.6439C156.939 26.2725 154.942 24.5787 152.41 23.9223C151.402 23.6682 149.227 23.5624 148.093 23.7318ZM151.644 25.7855C153.955 26.3889 155.741 28.0722 156.455 30.3589C157.191 32.6985 156.834 35.5039 155.583 37.3988C154.753 38.6586 153.608 39.5267 152.095 40.0243C151.318 40.2889 151.045 40.3207 149.7 40.3207C148.397 40.3313 148.072 40.2995 147.378 40.0772C145.13 39.3679 143.522 37.8117 142.776 35.578C142.346 34.2652 142.272 32.3279 142.608 31.0152C143.27 28.3474 145.077 26.463 147.62 25.7855C148.723 25.5103 150.53 25.4997 151.644 25.7855Z" fill="#8A8A8A"/>
<path d="M179.202 23.721C176.428 24.2186 173.97 26.0183 172.856 28.3579C172.036 30.0623 171.879 30.7822 171.879 32.9947C171.889 35.2073 172.015 35.9272 172.688 37.3034C174.138 40.2782 176.628 41.9297 180.221 42.2578C181.429 42.3743 182.984 42.2684 184.097 41.972C186.031 41.4744 188.689 39.6218 188.941 38.5738C189.035 38.2244 188.836 37.5892 188.594 37.4622C188.489 37.4093 188.216 37.3563 187.985 37.3563C187.638 37.3563 187.48 37.4516 186.713 38.2032C185.715 39.1772 185.011 39.6112 183.782 40.0347C182.994 40.3205 182.774 40.3417 181.345 40.3523C179.548 40.3523 178.865 40.2147 177.563 39.5689C176.386 38.9866 175.251 37.8327 174.663 36.5941C174.285 35.7895 173.886 34.4239 173.886 33.9369C173.886 33.7887 174.779 33.7675 181.65 33.7358C187.859 33.7146 189.456 33.6723 189.655 33.5664C190.086 33.3123 190.254 32.7406 190.159 31.7561C189.823 27.8285 187.396 24.9067 183.667 23.9539C182.679 23.6787 180.137 23.5516 179.202 23.721ZM183.12 25.7854C185.39 26.3676 187.144 28.0191 187.869 30.2528C188.016 30.6975 188.163 31.2374 188.205 31.4173L188.268 31.7773H181.082H173.896L174.054 31.0362C174.695 28.1673 176.67 26.2618 179.653 25.6266C180.336 25.5101 182.343 25.5842 183.12 25.7854Z" fill="#8A8A8A"/>
<path d="M193.784 23.9756C193.637 24.0497 193.448 24.2509 193.374 24.4203C193.049 25.0766 193.143 25.2142 196.757 29.1736L200.151 32.9106L198.386 34.8267C192.838 40.861 193.133 40.5116 193.133 41.0304C193.133 41.295 193.185 41.602 193.238 41.7079C193.395 42.0043 194.047 42.1631 194.425 42.0043C194.582 41.9302 196.242 40.1623 198.102 38.0767C199.962 35.9912 201.516 34.308 201.558 34.3186C201.59 34.3397 203.113 36.023 204.931 38.0556C206.738 40.0987 208.303 41.8243 208.398 41.909C208.492 41.9831 208.776 42.0466 209.028 42.0466C209.659 42.0361 209.995 41.6973 209.995 41.0833C209.995 40.5116 210.299 40.8821 206.118 36.3088L202.935 32.847L203.365 32.3918C203.597 32.1483 205.141 30.4651 206.78 28.6442C209.701 25.4048 209.764 25.3307 209.764 24.8861C209.753 24.1662 209.291 23.7533 208.629 23.8698C208.324 23.9333 207.768 24.5155 204.952 27.6915C203.134 29.7664 201.6 31.4496 201.558 31.4496C201.516 31.4496 200.025 29.8087 198.249 27.7973C196.474 25.7859 194.929 24.0709 194.803 23.9862C194.551 23.7957 194.141 23.7851 193.784 23.9756Z" fill="#8A8A8A"/>
</svg>
